<?xml version="1.0" encoding="UTF-8" standalone="no"?>
<!DOCTYPE svg PUBLIC "-//W3C//DTD SVG 1.1//EN"
 "http://www.w3.org/Graphics/SVG/1.1/DTD/svg11.dtd">
<!-- Generated by graphviz version 2.40.1 (20161225.0304)
 -->
<!-- Title: dependencies Pages: 1 -->
<svg width="5416pt" height="211pt"
 viewBox="0.00 0.00 5416.00 211.00" xmlns="http://www.w3.org/2000/svg" xmlns:xlink="http://www.w3.org/1999/xlink">
<g id="graph0" class="graph" transform="scale(1 1) rotate(0) translate(4 207)">
<title>dependencies</title>
<polygon fill="#ffffff" stroke="transparent" points="-4,4 -4,-207 5412,-207 5412,4 -4,4"/>
<text text-anchor="start" x="2683.0091" y="-42.4" font-family="sans-serif" font-weight="bold" font-size="14.00" fill="#000000">Legend</text>
<polygon fill="#ffffb3" stroke="transparent" points="2470,-10 2470,-30 2490,-30 2490,-10 2470,-10"/>
<text text-anchor="start" x="2493.629" y="-15.4" font-family="sans-serif" font-size="14.00" fill="#000000"> &#160;Declarations</text>
<polygon fill="#8dd3c7" stroke="transparent" points="2583,-10 2583,-30 2603,-30 2603,-10 2583,-10"/>
<text text-anchor="start" x="2606.7251" y="-15.4" font-family="sans-serif" font-size="14.00" fill="#000000"> &#160;Module</text>
<polygon fill="#80b1d3" stroke="transparent" points="2669,-10 2669,-30 2689,-30 2689,-10 2669,-10"/>
<text text-anchor="start" x="2692.7812" y="-15.4" font-family="sans-serif" font-size="14.00" fill="#000000"> &#160;Bootstrap</text>
<polygon fill="#fdb462" stroke="transparent" points="2766,-10 2766,-30 2786,-30 2786,-10 2766,-10"/>
<text text-anchor="start" x="2789.6732" y="-15.4" font-family="sans-serif" font-size="14.00" fill="#000000"> &#160;Providers</text>
<polygon fill="#fb8072" stroke="transparent" points="2862,-10 2862,-30 2882,-30 2882,-10 2862,-10"/>
<text text-anchor="start" x="2885.7258" y="-15.4" font-family="sans-serif" font-size="14.00" fill="#000000"> &#160;Exports</text>
<g id="clust7" class="cluster">
<title>cluster_AttractionsModule</title>
<polygon fill="none" stroke="#000000" stroke-dasharray="1,5" points="8,-70 8,-195 2026,-195 2026,-70 8,-70"/>
</g>
<g id="clust8" class="cluster">
<title>cluster_AttractionsModule_declarations</title>
<polygon fill="none" stroke="#000000" points="206,-78 206,-130 2018,-130 2018,-78 206,-78"/>
</g>
<g id="clust20" class="cluster">
<title>cluster_AttractionsModule_imports</title>
<polygon fill="none" stroke="#000000" points="16,-78 16,-130 198,-130 198,-78 16,-78"/>
</g>
<g id="clust30" class="cluster">
<title>cluster_BillConfirmComponent</title>
<polygon fill="none" stroke="#000000" stroke-dasharray="1,5" points="2034,-70 2034,-195 2200,-195 2200,-70 2034,-70"/>
</g>
<g id="clust32" class="cluster">
<title>cluster_BillConfirmComponent_imports</title>
<polygon fill="none" stroke="#000000" points="2100,-78 2100,-130 2192,-130 2192,-78 2100,-78"/>
</g>
<g id="clust36" class="cluster">
<title>cluster_BillFiscalComponent</title>
<polygon fill="none" stroke="#000000" stroke-dasharray="1,5" points="2208,-143 2208,-195 2360,-195 2360,-143 2208,-143"/>
</g>
<g id="clust42" class="cluster">
<title>cluster_BillRequestComponent</title>
<polygon fill="none" stroke="#000000" stroke-dasharray="1,5" points="2368,-143 2368,-195 2532,-195 2532,-143 2368,-143"/>
</g>
<g id="clust48" class="cluster">
<title>cluster_BillSearchComponent</title>
<polygon fill="none" stroke="#000000" stroke-dasharray="1,5" points="2540,-143 2540,-195 2696,-195 2696,-143 2540,-143"/>
</g>
<g id="clust54" class="cluster">
<title>cluster_GuideModule</title>
<polygon fill="none" stroke="#000000" stroke-dasharray="1,5" points="2842,-70 2842,-195 3821,-195 3821,-70 2842,-70"/>
</g>
<g id="clust55" class="cluster">
<title>cluster_GuideModule_declarations</title>
<polygon fill="none" stroke="#000000" points="3012,-78 3012,-130 3813,-130 3813,-78 3012,-78"/>
</g>
<g id="clust61" class="cluster">
<title>cluster_GuideModule_imports</title>
<polygon fill="none" stroke="#000000" points="2850,-78 2850,-130 3004,-130 3004,-78 2850,-78"/>
</g>
<g id="clust71" class="cluster">
<title>cluster_RchModule</title>
<polygon fill="none" stroke="#000000" stroke-dasharray="1,5" points="3829,-70 3829,-195 4707,-195 4707,-70 3829,-70"/>
</g>
<g id="clust72" class="cluster">
<title>cluster_RchModule_declarations</title>
<polygon fill="none" stroke="#000000" points="3989,-78 3989,-130 4699,-130 4699,-78 3989,-78"/>
</g>
<g id="clust78" class="cluster">
<title>cluster_RchModule_imports</title>
<polygon fill="none" stroke="#000000" points="3837,-78 3837,-130 3981,-130 3981,-78 3837,-78"/>
</g>
<g id="clust88" class="cluster">
<title>cluster_Step1Component</title>
<polygon fill="none" stroke="#000000" stroke-dasharray="1,5" points="2704,-143 2704,-195 2834,-195 2834,-143 2704,-143"/>
</g>
<g id="clust94" class="cluster">
<title>cluster_TrainsModule</title>
<polygon fill="none" stroke="#000000" stroke-dasharray="1,5" points="4715,-70 4715,-195 5400,-195 5400,-70 4715,-70"/>
</g>
<g id="clust95" class="cluster">
<title>cluster_TrainsModule_declarations</title>
<polygon fill="none" stroke="#000000" points="4887,-78 4887,-130 5392,-130 5392,-78 4887,-78"/>
</g>
<g id="clust99" class="cluster">
<title>cluster_TrainsModule_imports</title>
<polygon fill="none" stroke="#000000" points="4723,-78 4723,-130 4879,-130 4879,-78 4723,-78"/>
</g>
<!-- BahuichivoComponent -->
<g id="node1" class="node">
<title>BahuichivoComponent</title>
<polygon fill="#ffffb3" stroke="#000000" points="2009.8794,-122 1864.1206,-122 1864.1206,-86 2009.8794,-86 2009.8794,-122"/>
<text text-anchor="middle" x="1937" y="-99.8" font-family="Times,serif" font-size="14.00" fill="#000000">BahuichivoComponent</text>
</g>
<!-- AttractionsModule -->
<g id="node12" class="node">
<title>AttractionsModule</title>
<polygon fill="#8dd3c7" stroke="#000000" points="1095.7534,-187 1092.7534,-191 1071.7534,-191 1068.7534,-187 974.2466,-187 974.2466,-151 1095.7534,-151 1095.7534,-187"/>
<text text-anchor="middle" x="1035" y="-164.8" font-family="Times,serif" font-size="14.00" fill="#000000">AttractionsModule</text>
</g>
<!-- BahuichivoComponent&#45;&gt;AttractionsModule -->
<g id="edge1" class="edge">
<title>BahuichivoComponent&#45;&gt;AttractionsModule</title>
<path fill="none" stroke="#000000" d="M1937,-122.0908C1937,-145.1328 1937,-182 1937,-182 1937,-182 1105.9357,-182 1105.9357,-182"/>
<polygon fill="#000000" stroke="#000000" points="1105.9358,-178.5001 1095.9357,-182 1105.9357,-185.5001 1105.9358,-178.5001"/>
</g>
<!-- BarrancasCobreComponent -->
<g id="node2" class="node">
<title>BarrancasCobreComponent</title>
<polygon fill="#ffffb3" stroke="#000000" points="1845.5057,-122 1674.4943,-122 1674.4943,-86 1845.5057,-86 1845.5057,-122"/>
<text text-anchor="middle" x="1760" y="-99.8" font-family="Times,serif" font-size="14.00" fill="#000000">BarrancasCobreComponent</text>
</g>
<!-- BarrancasCobreComponent&#45;&gt;AttractionsModule -->
<g id="edge2" class="edge">
<title>BarrancasCobreComponent&#45;&gt;AttractionsModule</title>
<path fill="none" stroke="#000000" d="M1760,-122.2843C1760,-143.3211 1760,-175 1760,-175 1760,-175 1105.8768,-175 1105.8768,-175"/>
<polygon fill="#000000" stroke="#000000" points="1105.8769,-171.5001 1095.8768,-175 1105.8768,-178.5001 1105.8769,-171.5001"/>
</g>
<!-- ChepexploraComponent -->
<g id="node3" class="node">
<title>ChepexploraComponent</title>
<polygon fill="#ffffb3" stroke="#000000" points="1656.3641,-122 1503.6359,-122 1503.6359,-86 1656.3641,-86 1656.3641,-122"/>
<text text-anchor="middle" x="1580" y="-99.8" font-family="Times,serif" font-size="14.00" fill="#000000">ChepexploraComponent</text>
</g>
<!-- ChepexploraComponent&#45;&gt;AttractionsModule -->
<g id="edge3" class="edge">
<title>ChepexploraComponent&#45;&gt;AttractionsModule</title>
<path fill="none" stroke="#000000" d="M1580,-122.1061C1580,-141.3391 1580,-169 1580,-169 1580,-169 1105.932,-169 1105.932,-169"/>
<polygon fill="#000000" stroke="#000000" points="1105.9321,-165.5001 1095.932,-169 1105.932,-172.5001 1105.9321,-165.5001"/>
</g>
<!-- ChihuahuaComponent -->
<g id="node4" class="node">
<title>ChihuahuaComponent</title>
<polygon fill="#ffffb3" stroke="#000000" points="1485.9888,-122 1344.0112,-122 1344.0112,-86 1485.9888,-86 1485.9888,-122"/>
<text text-anchor="middle" x="1415" y="-99.8" font-family="Times,serif" font-size="14.00" fill="#000000">ChihuahuaComponent</text>
</g>
<!-- ChihuahuaComponent&#45;&gt;AttractionsModule -->
<g id="edge4" class="edge">
<title>ChihuahuaComponent&#45;&gt;AttractionsModule</title>
<path fill="none" stroke="#000000" d="M1415,-122.0225C1415,-139.3734 1415,-163 1415,-163 1415,-163 1106.0536,-163 1106.0536,-163"/>
<polygon fill="#000000" stroke="#000000" points="1106.0536,-159.5001 1096.0536,-163 1106.0535,-166.5001 1106.0536,-159.5001"/>
</g>
<!-- CreelComponent -->
<g id="node5" class="node">
<title>CreelComponent</title>
<polygon fill="#ffffb3" stroke="#000000" points="1325.6499,-122 1214.3501,-122 1214.3501,-86 1325.6499,-86 1325.6499,-122"/>
<text text-anchor="middle" x="1270" y="-99.8" font-family="Times,serif" font-size="14.00" fill="#000000">CreelComponent</text>
</g>
<!-- CreelComponent&#45;&gt;AttractionsModule -->
<g id="edge5" class="edge">
<title>CreelComponent&#45;&gt;AttractionsModule</title>
<path fill="none" stroke="#000000" d="M1270,-122.2396C1270,-137.5706 1270,-157 1270,-157 1270,-157 1105.824,-157 1105.824,-157"/>
<polygon fill="#000000" stroke="#000000" points="1105.824,-153.5001 1095.824,-157 1105.8239,-160.5001 1105.824,-153.5001"/>
</g>
<!-- CuauhtemocComponent -->
<g id="node6" class="node">
<title>CuauhtemocComponent</title>
<polygon fill="#ffffb3" stroke="#000000" points="1196.094,-122 1043.906,-122 1043.906,-86 1196.094,-86 1196.094,-122"/>
<text text-anchor="middle" x="1120" y="-99.8" font-family="Times,serif" font-size="14.00" fill="#000000">CuauhtemocComponent</text>
</g>
<!-- CuauhtemocComponent&#45;&gt;AttractionsModule -->
<g id="edge6" class="edge">
<title>CuauhtemocComponent&#45;&gt;AttractionsModule</title>
<path fill="none" stroke="#000000" d="M1069.9148,-122.1061C1069.9148,-122.1061 1069.9148,-140.991 1069.9148,-140.991"/>
<polygon fill="#000000" stroke="#000000" points="1066.4149,-140.9909 1069.9148,-150.991 1073.4149,-140.991 1066.4149,-140.9909"/>
</g>
<!-- DestinationsComponent -->
<g id="node7" class="node">
<title>DestinationsComponent</title>
<polygon fill="#ffffb3" stroke="#000000" points="1025.8201,-122 874.1799,-122 874.1799,-86 1025.8201,-86 1025.8201,-122"/>
<text text-anchor="middle" x="950" y="-99.8" font-family="Times,serif" font-size="14.00" fill="#000000">DestinationsComponent</text>
</g>
<!-- DestinationsComponent&#45;&gt;AttractionsModule -->
<g id="edge7" class="edge">
<title>DestinationsComponent&#45;&gt;AttractionsModule</title>
<path fill="none" stroke="#000000" d="M999.8917,-122.1061C999.8917,-122.1061 999.8917,-140.991 999.8917,-140.991"/>
<polygon fill="#000000" stroke="#000000" points="996.3917,-140.9909 999.8917,-150.991 1003.3917,-140.991 996.3917,-140.9909"/>
</g>
<!-- DetailsComponent -->
<g id="node8" class="node">
<title>DetailsComponent</title>
<polygon fill="#ffffb3" stroke="#000000" points="856.4846,-122 735.5154,-122 735.5154,-86 856.4846,-86 856.4846,-122"/>
<text text-anchor="middle" x="796" y="-99.8" font-family="Times,serif" font-size="14.00" fill="#000000">DetailsComponent</text>
</g>
<!-- DetailsComponent&#45;&gt;AttractionsModule -->
<g id="edge8" class="edge">
<title>DetailsComponent&#45;&gt;AttractionsModule</title>
<path fill="none" stroke="#000000" d="M796,-122.2396C796,-137.5706 796,-157 796,-157 796,-157 964.0718,-157 964.0718,-157"/>
<polygon fill="#000000" stroke="#000000" points="964.0718,-160.5001 974.0718,-157 964.0718,-153.5001 964.0718,-160.5001"/>
</g>
<!-- ElFuerteComponent -->
<g id="node9" class="node">
<title>ElFuerteComponent</title>
<polygon fill="#ffffb3" stroke="#000000" points="717.5394,-122 588.4606,-122 588.4606,-86 717.5394,-86 717.5394,-122"/>
<text text-anchor="middle" x="653" y="-99.8" font-family="Times,serif" font-size="14.00" fill="#000000">ElFuerteComponent</text>
</g>
<!-- ElFuerteComponent&#45;&gt;AttractionsModule -->
<g id="edge9" class="edge">
<title>ElFuerteComponent&#45;&gt;AttractionsModule</title>
<path fill="none" stroke="#000000" d="M653,-122.0225C653,-139.3734 653,-163 653,-163 653,-163 964.0486,-163 964.0486,-163"/>
<polygon fill="#000000" stroke="#000000" points="964.0486,-166.5001 974.0486,-163 964.0485,-159.5001 964.0486,-166.5001"/>
</g>
<!-- LosMochisComponent -->
<g id="node10" class="node">
<title>LosMochisComponent</title>
<polygon fill="#ffffb3" stroke="#000000" points="570.3244,-122 425.6756,-122 425.6756,-86 570.3244,-86 570.3244,-122"/>
<text text-anchor="middle" x="498" y="-99.8" font-family="Times,serif" font-size="14.00" fill="#000000">LosMochisComponent</text>
</g>
<!-- LosMochisComponent&#45;&gt;AttractionsModule -->
<g id="edge10" class="edge">
<title>LosMochisComponent&#45;&gt;AttractionsModule</title>
<path fill="none" stroke="#000000" d="M498,-122.1061C498,-141.3391 498,-169 498,-169 498,-169 964.1828,-169 964.1828,-169"/>
<polygon fill="#000000" stroke="#000000" points="964.1829,-172.5001 974.1828,-169 964.1828,-165.5001 964.1829,-172.5001"/>
</g>
<!-- NativeCommunitiesComponent -->
<g id="node11" class="node">
<title>NativeCommunitiesComponent</title>
<polygon fill="#ffffb3" stroke="#000000" points="408.0982,-122 213.9018,-122 213.9018,-86 408.0982,-86 408.0982,-122"/>
<text text-anchor="middle" x="311" y="-99.8" font-family="Times,serif" font-size="14.00" fill="#000000">NativeCommunitiesComponent</text>
</g>
<!-- NativeCommunitiesComponent&#45;&gt;AttractionsModule -->
<g id="edge11" class="edge">
<title>NativeCommunitiesComponent&#45;&gt;AttractionsModule</title>
<path fill="none" stroke="#000000" d="M311,-122.2843C311,-143.3211 311,-175 311,-175 311,-175 964.2071,-175 964.2071,-175"/>
<polygon fill="#000000" stroke="#000000" points="964.2072,-178.5001 974.2071,-175 964.2071,-171.5001 964.2072,-178.5001"/>
</g>
<!-- AttractionsRoutingModule -->
<g id="node13" class="node">
<title>AttractionsRoutingModule</title>
<polygon fill="#8dd3c7" stroke="#000000" points="190.371,-122 187.371,-126 166.371,-126 163.371,-122 23.629,-122 23.629,-86 190.371,-86 190.371,-122"/>
<text text-anchor="middle" x="107" y="-99.8" font-family="Times,serif" font-size="14.00" fill="#000000">AttractionsRoutingModule</text>
</g>
<!-- AttractionsRoutingModule&#45;&gt;AttractionsModule -->
<g id="edge12" class="edge">
<title>AttractionsRoutingModule&#45;&gt;AttractionsModule</title>
<path fill="none" stroke="#000000" d="M107,-122.0908C107,-145.1328 107,-182 107,-182 107,-182 964.1113,-182 964.1113,-182"/>
<polygon fill="#000000" stroke="#000000" points="964.1114,-185.5001 974.1113,-182 964.1113,-178.5001 964.1114,-185.5001"/>
</g>
<!-- HttpClient -->
<g id="node14" class="node">
<title>HttpClient</title>
<polygon fill="#8dd3c7" stroke="#000000" points="2183.6109,-122 2180.6109,-126 2159.6109,-126 2156.6109,-122 2108.3891,-122 2108.3891,-86 2183.6109,-86 2183.6109,-122"/>
<text text-anchor="middle" x="2146" y="-99.8" font-family="Times,serif" font-size="14.00" fill="#000000">HttpClient</text>
</g>
<!-- BillConfirmComponent -->
<g id="node15" class="node">
<title>BillConfirmComponent</title>
<polygon fill="#8dd3c7" stroke="#000000" points="2191.78,-187 2188.78,-191 2167.78,-191 2164.78,-187 2042.22,-187 2042.22,-151 2191.78,-151 2191.78,-187"/>
<text text-anchor="middle" x="2117" y="-164.8" font-family="Times,serif" font-size="14.00" fill="#000000">BillConfirmComponent</text>
</g>
<!-- HttpClient&#45;&gt;BillConfirmComponent -->
<g id="edge13" class="edge">
<title>HttpClient&#45;&gt;BillConfirmComponent</title>
<path fill="none" stroke="#000000" d="M2146,-122.1061C2146,-122.1061 2146,-140.991 2146,-140.991"/>
<polygon fill="#000000" stroke="#000000" points="2142.5001,-140.9909 2146,-150.991 2149.5001,-140.991 2142.5001,-140.9909"/>
</g>
<!-- BillFiscalComponent -->
<g id="node16" class="node">
<title>BillFiscalComponent</title>
<polygon fill="#8dd3c7" stroke="#000000" points="2351.7786,-187 2348.7786,-191 2327.7786,-191 2324.7786,-187 2216.2214,-187 2216.2214,-151 2351.7786,-151 2351.7786,-187"/>
<text text-anchor="middle" x="2284" y="-164.8" font-family="Times,serif" font-size="14.00" fill="#000000">BillFiscalComponent</text>
</g>
<!-- HttpClient&#45;&gt;BillFiscalComponent -->
<g id="edge14" class="edge">
<title>HttpClient&#45;&gt;BillFiscalComponent</title>
<path fill="none" stroke="#000000" d="M2183.7091,-115C2224.5684,-115 2284,-115 2284,-115 2284,-115 2284,-140.7181 2284,-140.7181"/>
<polygon fill="#000000" stroke="#000000" points="2280.5001,-140.718 2284,-150.7181 2287.5001,-140.7181 2280.5001,-140.718"/>
</g>
<!-- BillRequestComponent -->
<g id="node17" class="node">
<title>BillRequestComponent</title>
<polygon fill="#8dd3c7" stroke="#000000" points="2523.9425,-187 2520.9425,-191 2499.9425,-191 2496.9425,-187 2376.0575,-187 2376.0575,-151 2523.9425,-151 2523.9425,-187"/>
<text text-anchor="middle" x="2450" y="-164.8" font-family="Times,serif" font-size="14.00" fill="#000000">BillRequestComponent</text>
</g>
<!-- HttpClient&#45;&gt;BillRequestComponent -->
<g id="edge15" class="edge">
<title>HttpClient&#45;&gt;BillRequestComponent</title>
<path fill="none" stroke="#000000" d="M2183.5813,-108C2264.9167,-108 2450,-108 2450,-108 2450,-108 2450,-140.698 2450,-140.698"/>
<polygon fill="#000000" stroke="#000000" points="2446.5001,-140.698 2450,-150.698 2453.5001,-140.698 2446.5001,-140.698"/>
</g>
<!-- BillSearchComponent -->
<g id="node18" class="node">
<title>BillSearchComponent</title>
<polygon fill="#8dd3c7" stroke="#000000" points="2688.4285,-187 2685.4285,-191 2664.4285,-191 2661.4285,-187 2547.5715,-187 2547.5715,-151 2688.4285,-151 2688.4285,-187"/>
<text text-anchor="middle" x="2618" y="-164.8" font-family="Times,serif" font-size="14.00" fill="#000000">BillSearchComponent</text>
</g>
<!-- HttpClient&#45;&gt;BillSearchComponent -->
<g id="edge16" class="edge">
<title>HttpClient&#45;&gt;BillSearchComponent</title>
<path fill="none" stroke="#000000" d="M2183.8279,-101C2295.8317,-101 2618,-101 2618,-101 2618,-101 2618,-140.7772 2618,-140.7772"/>
<polygon fill="#000000" stroke="#000000" points="2614.5001,-140.7772 2618,-150.7772 2621.5001,-140.7773 2614.5001,-140.7772"/>
</g>
<!-- Step1Component -->
<g id="node33" class="node">
<title>Step1Component</title>
<polygon fill="#8dd3c7" stroke="#000000" points="2825.7204,-187 2822.7204,-191 2801.7204,-191 2798.7204,-187 2712.2796,-187 2712.2796,-151 2825.7204,-151 2825.7204,-187"/>
<text text-anchor="middle" x="2769" y="-164.8" font-family="Times,serif" font-size="14.00" fill="#000000">Step1Component</text>
</g>
<!-- HttpClient&#45;&gt;Step1Component -->
<g id="edge29" class="edge">
<title>HttpClient&#45;&gt;Step1Component</title>
<path fill="none" stroke="#000000" d="M2183.5684,-94C2318.2617,-94 2769,-94 2769,-94 2769,-94 2769,-140.8446 2769,-140.8446"/>
<polygon fill="#000000" stroke="#000000" points="2765.5001,-140.8446 2769,-150.8446 2772.5001,-140.8446 2765.5001,-140.8446"/>
</g>
<!-- AirlinesComponent -->
<g id="node19" class="node">
<title>AirlinesComponent</title>
<polygon fill="#ffffb3" stroke="#000000" points="3805.4313,-122 3678.5687,-122 3678.5687,-86 3805.4313,-86 3805.4313,-122"/>
<text text-anchor="middle" x="3742" y="-99.8" font-family="Times,serif" font-size="14.00" fill="#000000">AirlinesComponent</text>
</g>
<!-- GuideModule -->
<g id="node24" class="node">
<title>GuideModule</title>
<polygon fill="#8dd3c7" stroke="#000000" points="3417.7619,-187 3414.7619,-191 3393.7619,-191 3390.7619,-187 3324.2381,-187 3324.2381,-151 3417.7619,-151 3417.7619,-187"/>
<text text-anchor="middle" x="3371" y="-164.8" font-family="Times,serif" font-size="14.00" fill="#000000">GuideModule</text>
</g>
<!-- AirlinesComponent&#45;&gt;GuideModule -->
<g id="edge17" class="edge">
<title>AirlinesComponent&#45;&gt;GuideModule</title>
<path fill="none" stroke="#000000" d="M3742,-122.2667C3742,-140.5552 3742,-166 3742,-166 3742,-166 3427.9874,-166 3427.9874,-166"/>
<polygon fill="#000000" stroke="#000000" points="3427.9874,-162.5001 3417.9874,-166 3427.9874,-169.5001 3427.9874,-162.5001"/>
</g>
<!-- HotelsComponent -->
<g id="node20" class="node">
<title>HotelsComponent</title>
<polygon fill="#ffffb3" stroke="#000000" points="3660.8795,-122 3543.1205,-122 3543.1205,-86 3660.8795,-86 3660.8795,-122"/>
<text text-anchor="middle" x="3602" y="-99.8" font-family="Times,serif" font-size="14.00" fill="#000000">HotelsComponent</text>
</g>
<!-- HotelsComponent&#45;&gt;GuideModule -->
<g id="edge18" class="edge">
<title>HotelsComponent&#45;&gt;GuideModule</title>
<path fill="none" stroke="#000000" d="M3602,-122.0091C3602,-138.0494 3602,-159 3602,-159 3602,-159 3428.0247,-159 3428.0247,-159"/>
<polygon fill="#000000" stroke="#000000" points="3428.0248,-155.5001 3418.0247,-159 3428.0247,-162.5001 3428.0248,-155.5001"/>
</g>
<!-- ScheduleComponent -->
<g id="node21" class="node">
<title>ScheduleComponent</title>
<polygon fill="#ffffb3" stroke="#000000" points="3525.1499,-122 3392.8501,-122 3392.8501,-86 3525.1499,-86 3525.1499,-122"/>
<text text-anchor="middle" x="3459" y="-99.8" font-family="Times,serif" font-size="14.00" fill="#000000">ScheduleComponent</text>
</g>
<!-- ScheduleComponent&#45;&gt;GuideModule -->
<g id="edge19" class="edge">
<title>ScheduleComponent&#45;&gt;GuideModule</title>
<path fill="none" stroke="#000000" d="M3405.2781,-122.1061C3405.2781,-122.1061 3405.2781,-140.991 3405.2781,-140.991"/>
<polygon fill="#000000" stroke="#000000" points="3401.7781,-140.9909 3405.2781,-150.991 3408.7781,-140.991 3401.7781,-140.9909"/>
</g>
<!-- ScheduleRegionalComponent -->
<g id="node22" class="node">
<title>ScheduleRegionalComponent</title>
<polygon fill="#ffffb3" stroke="#000000" points="3374.6965,-122 3191.3035,-122 3191.3035,-86 3374.6965,-86 3374.6965,-122"/>
<text text-anchor="middle" x="3283" y="-99.8" font-family="Times,serif" font-size="14.00" fill="#000000">ScheduleRegionalComponent</text>
</g>
<!-- ScheduleRegionalComponent&#45;&gt;GuideModule -->
<g id="edge20" class="edge">
<title>ScheduleRegionalComponent&#45;&gt;GuideModule</title>
<path fill="none" stroke="#000000" d="M3349.3587,-122.1061C3349.3587,-122.1061 3349.3587,-140.991 3349.3587,-140.991"/>
<polygon fill="#000000" stroke="#000000" points="3345.8588,-140.9909 3349.3587,-150.991 3352.8588,-140.991 3345.8588,-140.9909"/>
</g>
<!-- TestimonialsComponent -->
<g id="node23" class="node">
<title>TestimonialsComponent</title>
<polygon fill="#ffffb3" stroke="#000000" points="3173.6568,-122 3020.3432,-122 3020.3432,-86 3173.6568,-86 3173.6568,-122"/>
<text text-anchor="middle" x="3097" y="-99.8" font-family="Times,serif" font-size="14.00" fill="#000000">TestimonialsComponent</text>
</g>
<!-- TestimonialsComponent&#45;&gt;GuideModule -->
<g id="edge21" class="edge">
<title>TestimonialsComponent&#45;&gt;GuideModule</title>
<path fill="none" stroke="#000000" d="M3097,-122.0225C3097,-139.3734 3097,-163 3097,-163 3097,-163 3314.209,-163 3314.209,-163"/>
<polygon fill="#000000" stroke="#000000" points="3314.2091,-166.5001 3324.209,-163 3314.209,-159.5001 3314.2091,-166.5001"/>
</g>
<!-- GuideRoutingModule -->
<g id="node25" class="node">
<title>GuideRoutingModule</title>
<polygon fill="#8dd3c7" stroke="#000000" points="2996.3795,-122 2993.3795,-126 2972.3795,-126 2969.3795,-122 2857.6205,-122 2857.6205,-86 2996.3795,-86 2996.3795,-122"/>
<text text-anchor="middle" x="2927" y="-99.8" font-family="Times,serif" font-size="14.00" fill="#000000">GuideRoutingModule</text>
</g>
<!-- GuideRoutingModule&#45;&gt;GuideModule -->
<g id="edge22" class="edge">
<title>GuideRoutingModule&#45;&gt;GuideModule</title>
<path fill="none" stroke="#000000" d="M2927,-122.2843C2927,-143.3211 2927,-175 2927,-175 2927,-175 3313.9046,-175 3313.9046,-175"/>
<polygon fill="#000000" stroke="#000000" points="3313.9046,-178.5001 3323.9046,-175 3313.9045,-171.5001 3313.9046,-178.5001"/>
</g>
<!-- CommitComponent -->
<g id="node26" class="node">
<title>CommitComponent</title>
<polygon fill="#ffffb3" stroke="#000000" points="4690.7316,-122 4563.2684,-122 4563.2684,-86 4690.7316,-86 4690.7316,-122"/>
<text text-anchor="middle" x="4627" y="-99.8" font-family="Times,serif" font-size="14.00" fill="#000000">CommitComponent</text>
</g>
<!-- RchModule -->
<g id="node31" class="node">
<title>RchModule</title>
<polygon fill="#8dd3c7" stroke="#000000" points="4304.1011,-187 4301.1011,-191 4280.1011,-191 4277.1011,-187 4221.8989,-187 4221.8989,-151 4304.1011,-151 4304.1011,-187"/>
<text text-anchor="middle" x="4263" y="-164.8" font-family="Times,serif" font-size="14.00" fill="#000000">RchModule</text>
</g>
<!-- CommitComponent&#45;&gt;RchModule -->
<g id="edge23" class="edge">
<title>CommitComponent&#45;&gt;RchModule</title>
<path fill="none" stroke="#000000" d="M4627,-122.2921C4627,-144.2057 4627,-178 4627,-178 4627,-178 4314.401,-178 4314.401,-178"/>
<polygon fill="#000000" stroke="#000000" points="4314.4011,-174.5001 4304.401,-178 4314.401,-181.5001 4314.4011,-174.5001"/>
</g>
<!-- ConfirmComponent -->
<g id="node27" class="node">
<title>ConfirmComponent</title>
<polygon fill="#ffffb3" stroke="#000000" points="4545.2716,-122 4416.7284,-122 4416.7284,-86 4545.2716,-86 4545.2716,-122"/>
<text text-anchor="middle" x="4481" y="-99.8" font-family="Times,serif" font-size="14.00" fill="#000000">ConfirmComponent</text>
</g>
<!-- ConfirmComponent&#45;&gt;RchModule -->
<g id="edge24" class="edge">
<title>ConfirmComponent&#45;&gt;RchModule</title>
<path fill="none" stroke="#000000" d="M4481,-122.1061C4481,-141.3391 4481,-169 4481,-169 4481,-169 4314.2604,-169 4314.2604,-169"/>
<polygon fill="#000000" stroke="#000000" points="4314.2605,-165.5001 4304.2604,-169 4314.2604,-172.5001 4314.2605,-165.5001"/>
</g>
<!-- CostBoxComponent -->
<g id="node28" class="node">
<title>CostBoxComponent</title>
<polygon fill="#ffffb3" stroke="#000000" points="4398.3412,-122 4267.6588,-122 4267.6588,-86 4398.3412,-86 4398.3412,-122"/>
<text text-anchor="middle" x="4333" y="-99.8" font-family="Times,serif" font-size="14.00" fill="#000000">CostBoxComponent</text>
</g>
<!-- CostBoxComponent&#45;&gt;RchModule -->
<g id="edge25" class="edge">
<title>CostBoxComponent&#45;&gt;RchModule</title>
<path fill="none" stroke="#000000" d="M4285.9401,-122.1061C4285.9401,-122.1061 4285.9401,-140.991 4285.9401,-140.991"/>
<polygon fill="#000000" stroke="#000000" points="4282.4401,-140.9909 4285.9401,-150.991 4289.4401,-140.991 4282.4401,-140.9909"/>
</g>
<!-- MainComponent -->
<g id="node29" class="node">
<title>MainComponent</title>
<polygon fill="#ffffb3" stroke="#000000" points="4249.3823,-122 4138.6177,-122 4138.6177,-86 4249.3823,-86 4249.3823,-122"/>
<text text-anchor="middle" x="4194" y="-99.8" font-family="Times,serif" font-size="14.00" fill="#000000">MainComponent</text>
</g>
<!-- MainComponent&#45;&gt;RchModule -->
<g id="edge26" class="edge">
<title>MainComponent&#45;&gt;RchModule</title>
<path fill="none" stroke="#000000" d="M4235.6953,-122.1061C4235.6953,-122.1061 4235.6953,-140.991 4235.6953,-140.991"/>
<polygon fill="#000000" stroke="#000000" points="4232.1954,-140.9909 4235.6953,-150.991 4239.1954,-140.991 4232.1954,-140.9909"/>
</g>
<!-- ReceiptComponent -->
<g id="node30" class="node">
<title>ReceiptComponent</title>
<polygon fill="#ffffb3" stroke="#000000" points="4121.094,-122 3996.906,-122 3996.906,-86 4121.094,-86 4121.094,-122"/>
<text text-anchor="middle" x="4059" y="-99.8" font-family="Times,serif" font-size="14.00" fill="#000000">ReceiptComponent</text>
</g>
<!-- ReceiptComponent&#45;&gt;RchModule -->
<g id="edge27" class="edge">
<title>ReceiptComponent&#45;&gt;RchModule</title>
<path fill="none" stroke="#000000" d="M4059,-122.1289C4059,-142.5724 4059,-173 4059,-173 4059,-173 4211.7176,-173 4211.7176,-173"/>
<polygon fill="#000000" stroke="#000000" points="4211.7176,-176.5001 4221.7176,-173 4211.7175,-169.5001 4211.7176,-176.5001"/>
</g>
<!-- RchRoutingModule -->
<g id="node32" class="node">
<title>RchRoutingModule</title>
<polygon fill="#8dd3c7" stroke="#000000" points="3972.719,-122 3969.719,-126 3948.719,-126 3945.719,-122 3845.281,-122 3845.281,-86 3972.719,-86 3972.719,-122"/>
<text text-anchor="middle" x="3909" y="-99.8" font-family="Times,serif" font-size="14.00" fill="#000000">RchRoutingModule</text>
</g>
<!-- RchRoutingModule&#45;&gt;RchModule -->
<g id="edge28" class="edge">
<title>RchRoutingModule&#45;&gt;RchModule</title>
<path fill="none" stroke="#000000" d="M3909,-122.0109C3909,-144.4852 3909,-180 3909,-180 3909,-180 4211.6989,-180 4211.6989,-180"/>
<polygon fill="#000000" stroke="#000000" points="4211.6989,-183.5001 4221.6989,-180 4211.6988,-176.5001 4211.6989,-183.5001"/>
</g>
<!-- ChepeExpressComponent -->
<g id="node34" class="node">
<title>ChepeExpressComponent</title>
<polygon fill="#ffffb3" stroke="#000000" points="5383.9157,-122 5222.0843,-122 5222.0843,-86 5383.9157,-86 5383.9157,-122"/>
<text text-anchor="middle" x="5303" y="-99.8" font-family="Times,serif" font-size="14.00" fill="#000000">ChepeExpressComponent</text>
</g>
<!-- TrainsModule -->
<g id="node37" class="node">
<title>TrainsModule</title>
<polygon fill="#8dd3c7" stroke="#000000" points="5085.8133,-187 5082.8133,-191 5061.8133,-191 5058.8133,-187 4990.1867,-187 4990.1867,-151 5085.8133,-151 5085.8133,-187"/>
<text text-anchor="middle" x="5038" y="-164.8" font-family="Times,serif" font-size="14.00" fill="#000000">TrainsModule</text>
</g>
<!-- ChepeExpressComponent&#45;&gt;TrainsModule -->
<g id="edge30" class="edge">
<title>ChepeExpressComponent&#45;&gt;TrainsModule</title>
<path fill="none" stroke="#000000" d="M5303,-122.1061C5303,-141.3391 5303,-169 5303,-169 5303,-169 5095.6827,-169 5095.6827,-169"/>
<polygon fill="#000000" stroke="#000000" points="5095.6828,-165.5001 5085.6827,-169 5095.6827,-172.5001 5095.6828,-165.5001"/>
</g>
<!-- ChepeRegionalComponent -->
<g id="node35" class="node">
<title>ChepeRegionalComponent</title>
<polygon fill="#ffffb3" stroke="#000000" points="5203.6456,-122 5036.3544,-122 5036.3544,-86 5203.6456,-86 5203.6456,-122"/>
<text text-anchor="middle" x="5120" y="-99.8" font-family="Times,serif" font-size="14.00" fill="#000000">ChepeRegionalComponent</text>
</g>
<!-- ChepeRegionalComponent&#45;&gt;TrainsModule -->
<g id="edge31" class="edge">
<title>ChepeRegionalComponent&#45;&gt;TrainsModule</title>
<path fill="none" stroke="#000000" d="M5060.9169,-122.1061C5060.9169,-122.1061 5060.9169,-140.991 5060.9169,-140.991"/>
<polygon fill="#000000" stroke="#000000" points="5057.417,-140.9909 5060.9169,-150.991 5064.417,-140.991 5057.417,-140.9909"/>
</g>
<!-- GalleryComponent -->
<g id="node36" class="node">
<title>GalleryComponent</title>
<polygon fill="#ffffb3" stroke="#000000" points="5018.8104,-122 4895.1896,-122 4895.1896,-86 5018.8104,-86 5018.8104,-122"/>
<text text-anchor="middle" x="4957" y="-99.8" font-family="Times,serif" font-size="14.00" fill="#000000">GalleryComponent</text>
</g>
<!-- GalleryComponent&#45;&gt;TrainsModule -->
<g id="edge32" class="edge">
<title>GalleryComponent&#45;&gt;TrainsModule</title>
<path fill="none" stroke="#000000" d="M5004.4993,-122.1061C5004.4993,-122.1061 5004.4993,-140.991 5004.4993,-140.991"/>
<polygon fill="#000000" stroke="#000000" points="5000.9994,-140.9909 5004.4993,-150.991 5007.9994,-140.991 5000.9994,-140.9909"/>
</g>
<!-- TrainsRoutingModule -->
<g id="node38" class="node">
<title>TrainsRoutingModule</title>
<polygon fill="#8dd3c7" stroke="#000000" points="4871.4313,-122 4868.4313,-126 4847.4313,-126 4844.4313,-122 4730.5687,-122 4730.5687,-86 4871.4313,-86 4871.4313,-122"/>
<text text-anchor="middle" x="4801" y="-99.8" font-family="Times,serif" font-size="14.00" fill="#000000">TrainsRoutingModule</text>
</g>
<!-- TrainsRoutingModule&#45;&gt;TrainsModule -->
<g id="edge33" class="edge">
<title>TrainsRoutingModule&#45;&gt;TrainsModule</title>
<path fill="none" stroke="#000000" d="M4801,-122.027C4801,-138.3976 4801,-160 4801,-160 4801,-160 4980.3246,-160 4980.3246,-160"/>
<polygon fill="#000000" stroke="#000000" points="4980.3246,-163.5001 4990.3246,-160 4980.3246,-156.5001 4980.3246,-163.5001"/>
</g>
</g>
</svg>
