<?xml version="1.0" encoding="UTF-8" standalone="no"?>
<!DOCTYPE svg PUBLIC "-//W3C//DTD SVG 1.1//EN"
 "http://www.w3.org/Graphics/SVG/1.1/DTD/svg11.dtd">
<!-- Generated by graphviz version 2.40.1 (20161225.0304)
 -->
<!-- Title: dependencies Pages: 1 -->
<svg width="1003pt" height="211pt"
 viewBox="0.00 0.00 1003.00 211.00" xmlns="http://www.w3.org/2000/svg" xmlns:xlink="http://www.w3.org/1999/xlink">
<g id="graph0" class="graph" transform="scale(1 1) rotate(0) translate(4 207)">
<title>dependencies</title>
<polygon fill="#ffffff" stroke="transparent" points="-4,4 -4,-207 999,-207 999,4 -4,4"/>
<text text-anchor="start" x="476.5091" y="-42.4" font-family="sans-serif" font-weight="bold" font-size="14.00" fill="#000000">Legend</text>
<polygon fill="#ffffb3" stroke="transparent" points="263.5,-10 263.5,-30 283.5,-30 283.5,-10 263.5,-10"/>
<text text-anchor="start" x="287.129" y="-15.4" font-family="sans-serif" font-size="14.00" fill="#000000"> &#160;Declarations</text>
<polygon fill="#8dd3c7" stroke="transparent" points="376.5,-10 376.5,-30 396.5,-30 396.5,-10 376.5,-10"/>
<text text-anchor="start" x="400.2251" y="-15.4" font-family="sans-serif" font-size="14.00" fill="#000000"> &#160;Module</text>
<polygon fill="#80b1d3" stroke="transparent" points="462.5,-10 462.5,-30 482.5,-30 482.5,-10 462.5,-10"/>
<text text-anchor="start" x="486.2812" y="-15.4" font-family="sans-serif" font-size="14.00" fill="#000000"> &#160;Bootstrap</text>
<polygon fill="#fdb462" stroke="transparent" points="559.5,-10 559.5,-30 579.5,-30 579.5,-10 559.5,-10"/>
<text text-anchor="start" x="583.1732" y="-15.4" font-family="sans-serif" font-size="14.00" fill="#000000"> &#160;Providers</text>
<polygon fill="#fb8072" stroke="transparent" points="655.5,-10 655.5,-30 675.5,-30 675.5,-10 655.5,-10"/>
<text text-anchor="start" x="679.2258" y="-15.4" font-family="sans-serif" font-size="14.00" fill="#000000"> &#160;Exports</text>
<g id="clust1" class="cluster">
<title>cluster_GuideModule</title>
<polygon fill="none" stroke="#000000" stroke-dasharray="1,5" points="8,-70 8,-195 987,-195 987,-70 8,-70"/>
</g>
<g id="clust2" class="cluster">
<title>cluster_GuideModule_declarations</title>
<polygon fill="none" stroke="#000000" points="178,-78 178,-130 979,-130 979,-78 178,-78"/>
</g>
<g id="clust8" class="cluster">
<title>cluster_GuideModule_imports</title>
<polygon fill="none" stroke="#000000" points="16,-78 16,-130 170,-130 170,-78 16,-78"/>
</g>
<!-- AirlinesComponent -->
<g id="node1" class="node">
<title>AirlinesComponent</title>
<polygon fill="#ffffb3" stroke="#000000" points="971.4313,-122 844.5687,-122 844.5687,-86 971.4313,-86 971.4313,-122"/>
<text text-anchor="middle" x="908" y="-99.8" font-family="Times,serif" font-size="14.00" fill="#000000">AirlinesComponent</text>
</g>
<!-- GuideModule -->
<g id="node6" class="node">
<title>GuideModule</title>
<polygon fill="#8dd3c7" stroke="#000000" points="583.7619,-187 580.7619,-191 559.7619,-191 556.7619,-187 490.2381,-187 490.2381,-151 583.7619,-151 583.7619,-187"/>
<text text-anchor="middle" x="537" y="-164.8" font-family="Times,serif" font-size="14.00" fill="#000000">GuideModule</text>
</g>
<!-- AirlinesComponent&#45;&gt;GuideModule -->
<g id="edge1" class="edge">
<title>AirlinesComponent&#45;&gt;GuideModule</title>
<path fill="none" stroke="#000000" d="M908,-122.2843C908,-143.3211 908,-175 908,-175 908,-175 593.9874,-175 593.9874,-175"/>
<polygon fill="#000000" stroke="#000000" points="593.9874,-171.5001 583.9874,-175 593.9874,-178.5001 593.9874,-171.5001"/>
</g>
<!-- HotelsComponent -->
<g id="node2" class="node">
<title>HotelsComponent</title>
<polygon fill="#ffffb3" stroke="#000000" points="826.8795,-122 709.1205,-122 709.1205,-86 826.8795,-86 826.8795,-122"/>
<text text-anchor="middle" x="768" y="-99.8" font-family="Times,serif" font-size="14.00" fill="#000000">HotelsComponent</text>
</g>
<!-- HotelsComponent&#45;&gt;GuideModule -->
<g id="edge2" class="edge">
<title>HotelsComponent&#45;&gt;GuideModule</title>
<path fill="none" stroke="#000000" d="M768,-122.0225C768,-139.3734 768,-163 768,-163 768,-163 594.0247,-163 594.0247,-163"/>
<polygon fill="#000000" stroke="#000000" points="594.0248,-159.5001 584.0247,-163 594.0247,-166.5001 594.0248,-159.5001"/>
</g>
<!-- ScheduleComponent -->
<g id="node3" class="node">
<title>ScheduleComponent</title>
<polygon fill="#ffffb3" stroke="#000000" points="691.1499,-122 558.8501,-122 558.8501,-86 691.1499,-86 691.1499,-122"/>
<text text-anchor="middle" x="625" y="-99.8" font-family="Times,serif" font-size="14.00" fill="#000000">ScheduleComponent</text>
</g>
<!-- ScheduleComponent&#45;&gt;GuideModule -->
<g id="edge3" class="edge">
<title>ScheduleComponent&#45;&gt;GuideModule</title>
<path fill="none" stroke="#000000" d="M571.2781,-122.1061C571.2781,-122.1061 571.2781,-140.991 571.2781,-140.991"/>
<polygon fill="#000000" stroke="#000000" points="567.7781,-140.9909 571.2781,-150.991 574.7781,-140.991 567.7781,-140.9909"/>
</g>
<!-- ScheduleRegionalComponent -->
<g id="node4" class="node">
<title>ScheduleRegionalComponent</title>
<polygon fill="#ffffb3" stroke="#000000" points="540.6965,-122 357.3035,-122 357.3035,-86 540.6965,-86 540.6965,-122"/>
<text text-anchor="middle" x="449" y="-99.8" font-family="Times,serif" font-size="14.00" fill="#000000">ScheduleRegionalComponent</text>
</g>
<!-- ScheduleRegionalComponent&#45;&gt;GuideModule -->
<g id="edge4" class="edge">
<title>ScheduleRegionalComponent&#45;&gt;GuideModule</title>
<path fill="none" stroke="#000000" d="M515.3587,-122.1061C515.3587,-122.1061 515.3587,-140.991 515.3587,-140.991"/>
<polygon fill="#000000" stroke="#000000" points="511.8588,-140.9909 515.3587,-150.991 518.8588,-140.991 511.8588,-140.9909"/>
</g>
<!-- TestimonialsComponent -->
<g id="node5" class="node">
<title>TestimonialsComponent</title>
<polygon fill="#ffffb3" stroke="#000000" points="339.6568,-122 186.3432,-122 186.3432,-86 339.6568,-86 339.6568,-122"/>
<text text-anchor="middle" x="263" y="-99.8" font-family="Times,serif" font-size="14.00" fill="#000000">TestimonialsComponent</text>
</g>
<!-- TestimonialsComponent&#45;&gt;GuideModule -->
<g id="edge5" class="edge">
<title>TestimonialsComponent&#45;&gt;GuideModule</title>
<path fill="none" stroke="#000000" d="M263,-122.0225C263,-139.3734 263,-163 263,-163 263,-163 480.209,-163 480.209,-163"/>
<polygon fill="#000000" stroke="#000000" points="480.2091,-166.5001 490.209,-163 480.209,-159.5001 480.2091,-166.5001"/>
</g>
<!-- GuideRoutingModule -->
<g id="node7" class="node">
<title>GuideRoutingModule</title>
<polygon fill="#8dd3c7" stroke="#000000" points="162.3795,-122 159.3795,-126 138.3795,-126 135.3795,-122 23.6205,-122 23.6205,-86 162.3795,-86 162.3795,-122"/>
<text text-anchor="middle" x="93" y="-99.8" font-family="Times,serif" font-size="14.00" fill="#000000">GuideRoutingModule</text>
</g>
<!-- GuideRoutingModule&#45;&gt;GuideModule -->
<g id="edge6" class="edge">
<title>GuideRoutingModule&#45;&gt;GuideModule</title>
<path fill="none" stroke="#000000" d="M93,-122.2843C93,-143.3211 93,-175 93,-175 93,-175 479.9046,-175 479.9046,-175"/>
<polygon fill="#000000" stroke="#000000" points="479.9046,-178.5001 489.9046,-175 479.9045,-171.5001 479.9046,-178.5001"/>
</g>
</g>
</svg>
