<?xml version="1.0" encoding="UTF-8" standalone="no"?>
<!DOCTYPE svg PUBLIC "-//W3C//DTD SVG 1.1//EN"
 "http://www.w3.org/Graphics/SVG/1.1/DTD/svg11.dtd">
<!-- Generated by graphviz version 2.40.1 (20161225.0304)
 -->
<!-- Title: dependencies Pages: 1 -->
<svg width="2586pt" height="284pt"
 viewBox="0.00 0.00 2586.00 284.00" xmlns="http://www.w3.org/2000/svg" xmlns:xlink="http://www.w3.org/1999/xlink">
<g id="graph0" class="graph" transform="scale(1 1) rotate(0) translate(4 280)">
<title>dependencies</title>
<polygon fill="#ffffff" stroke="transparent" points="-4,4 -4,-280 2582,-280 2582,4 -4,4"/>
<text text-anchor="start" x="1268.0091" y="-42.4" font-family="sans-serif" font-weight="bold" font-size="14.00" fill="#000000">Legend</text>
<polygon fill="#ffffb3" stroke="transparent" points="1055,-10 1055,-30 1075,-30 1075,-10 1055,-10"/>
<text text-anchor="start" x="1078.629" y="-15.4" font-family="sans-serif" font-size="14.00" fill="#000000"> &#160;Declarations</text>
<polygon fill="#8dd3c7" stroke="transparent" points="1168,-10 1168,-30 1188,-30 1188,-10 1168,-10"/>
<text text-anchor="start" x="1191.7251" y="-15.4" font-family="sans-serif" font-size="14.00" fill="#000000"> &#160;Module</text>
<polygon fill="#80b1d3" stroke="transparent" points="1254,-10 1254,-30 1274,-30 1274,-10 1254,-10"/>
<text text-anchor="start" x="1277.7812" y="-15.4" font-family="sans-serif" font-size="14.00" fill="#000000"> &#160;Bootstrap</text>
<polygon fill="#fdb462" stroke="transparent" points="1351,-10 1351,-30 1371,-30 1371,-10 1351,-10"/>
<text text-anchor="start" x="1374.6732" y="-15.4" font-family="sans-serif" font-size="14.00" fill="#000000"> &#160;Providers</text>
<polygon fill="#fb8072" stroke="transparent" points="1447,-10 1447,-30 1467,-30 1467,-10 1447,-10"/>
<text text-anchor="start" x="1470.7258" y="-15.4" font-family="sans-serif" font-size="14.00" fill="#000000"> &#160;Exports</text>
<g id="clust1" class="cluster">
<title>cluster_AppModule</title>
<polygon fill="none" stroke="#000000" stroke-dasharray="1,5" points="8,-70 8,-268 2570,-268 2570,-70 8,-70"/>
</g>
<g id="clust2" class="cluster">
<title>cluster_AppModule_declarations</title>
<polygon fill="none" stroke="#000000" points="168,-78 168,-130 2562,-130 2562,-78 168,-78"/>
</g>
<g id="clust19" class="cluster">
<title>cluster_AppModule_imports</title>
<polygon fill="none" stroke="#000000" points="16,-78 16,-130 160,-130 160,-78 16,-78"/>
</g>
<g id="clust21" class="cluster">
<title>cluster_AppModule_bootstrap</title>
<polygon fill="none" stroke="#000000" points="1261,-208 1261,-260 1385,-260 1385,-208 1261,-208"/>
</g>
<!-- AppComponent -->
<g id="node1" class="node">
<title>AppComponent</title>
<polygon fill="#ffffb3" stroke="#000000" points="2553.9399,-122 2448.0601,-122 2448.0601,-86 2553.9399,-86 2553.9399,-122"/>
<text text-anchor="middle" x="2501" y="-99.8" font-family="Times,serif" font-size="14.00" fill="#000000">AppComponent</text>
</g>
<!-- AppModule -->
<g id="node17" class="node">
<title>AppModule</title>
<polygon fill="#8dd3c7" stroke="#000000" points="1364.6571,-187 1361.6571,-191 1340.6571,-191 1337.6571,-187 1281.3429,-187 1281.3429,-151 1364.6571,-151 1364.6571,-187"/>
<text text-anchor="middle" x="1323" y="-164.8" font-family="Times,serif" font-size="14.00" fill="#000000">AppModule</text>
</g>
<!-- AppComponent&#45;&gt;AppModule -->
<g id="edge1" class="edge">
<title>AppComponent&#45;&gt;AppModule</title>
<path fill="none" stroke="#000000" d="M2501,-122.3228C2501,-145.6602 2501,-183 2501,-183 2501,-183 1374.9256,-183 1374.9256,-183"/>
<polygon fill="#000000" stroke="#000000" points="1374.9257,-179.5001 1364.9256,-183 1374.9256,-186.5001 1374.9257,-179.5001"/>
</g>
<!-- BillConfirmComponent -->
<g id="node2" class="node">
<title>BillConfirmComponent</title>
<polygon fill="#ffffb3" stroke="#000000" points="2429.78,-122 2280.22,-122 2280.22,-86 2429.78,-86 2429.78,-122"/>
<text text-anchor="middle" x="2355" y="-99.8" font-family="Times,serif" font-size="14.00" fill="#000000">BillConfirmComponent</text>
</g>
<!-- BillConfirmComponent&#45;&gt;AppModule -->
<g id="edge2" class="edge">
<title>BillConfirmComponent&#45;&gt;AppModule</title>
<path fill="none" stroke="#000000" d="M2355,-122.1554C2355,-144.3519 2355,-179 2355,-179 2355,-179 1374.7338,-179 1374.7338,-179"/>
<polygon fill="#000000" stroke="#000000" points="1374.7338,-175.5001 1364.7338,-179 1374.7338,-182.5001 1374.7338,-175.5001"/>
</g>
<!-- BillFiscalComponent -->
<g id="node3" class="node">
<title>BillFiscalComponent</title>
<polygon fill="#ffffb3" stroke="#000000" points="2261.7786,-122 2126.2214,-122 2126.2214,-86 2261.7786,-86 2261.7786,-122"/>
<text text-anchor="middle" x="2194" y="-99.8" font-family="Times,serif" font-size="14.00" fill="#000000">BillFiscalComponent</text>
</g>
<!-- BillFiscalComponent&#45;&gt;AppModule -->
<g id="edge3" class="edge">
<title>BillFiscalComponent&#45;&gt;AppModule</title>
<path fill="none" stroke="#000000" d="M2194,-122.2843C2194,-143.3211 2194,-175 2194,-175 2194,-175 1374.7167,-175 1374.7167,-175"/>
<polygon fill="#000000" stroke="#000000" points="1374.7167,-171.5001 1364.7167,-175 1374.7167,-178.5001 1374.7167,-171.5001"/>
</g>
<!-- BillRequestComponent -->
<g id="node4" class="node">
<title>BillRequestComponent</title>
<polygon fill="#ffffb3" stroke="#000000" points="2107.9425,-122 1960.0575,-122 1960.0575,-86 2107.9425,-86 2107.9425,-122"/>
<text text-anchor="middle" x="2034" y="-99.8" font-family="Times,serif" font-size="14.00" fill="#000000">BillRequestComponent</text>
</g>
<!-- BillRequestComponent&#45;&gt;AppModule -->
<g id="edge4" class="edge">
<title>BillRequestComponent&#45;&gt;AppModule</title>
<path fill="none" stroke="#000000" d="M2034,-122.308C2034,-142.1455 2034,-171 2034,-171 2034,-171 1374.8219,-171 1374.8219,-171"/>
<polygon fill="#000000" stroke="#000000" points="1374.8219,-167.5001 1364.8219,-171 1374.8218,-174.5001 1374.8219,-167.5001"/>
</g>
<!-- BillSearchComponent -->
<g id="node5" class="node">
<title>BillSearchComponent</title>
<polygon fill="#ffffb3" stroke="#000000" points="1942.4285,-122 1801.5715,-122 1801.5715,-86 1942.4285,-86 1942.4285,-122"/>
<text text-anchor="middle" x="1872" y="-99.8" font-family="Times,serif" font-size="14.00" fill="#000000">BillSearchComponent</text>
</g>
<!-- BillSearchComponent&#45;&gt;AppModule -->
<g id="edge5" class="edge">
<title>BillSearchComponent&#45;&gt;AppModule</title>
<path fill="none" stroke="#000000" d="M1872,-122.2222C1872,-140.8285 1872,-167 1872,-167 1872,-167 1374.7148,-167 1374.7148,-167"/>
<polygon fill="#000000" stroke="#000000" points="1374.7149,-163.5001 1364.7148,-167 1374.7148,-170.5001 1374.7149,-163.5001"/>
</g>
<!-- ContactComponent -->
<g id="node6" class="node">
<title>ContactComponent</title>
<polygon fill="#ffffb3" stroke="#000000" points="1783.3795,-122 1658.6205,-122 1658.6205,-86 1783.3795,-86 1783.3795,-122"/>
<text text-anchor="middle" x="1721" y="-99.8" font-family="Times,serif" font-size="14.00" fill="#000000">ContactComponent</text>
</g>
<!-- ContactComponent&#45;&gt;AppModule -->
<g id="edge6" class="edge">
<title>ContactComponent&#45;&gt;AppModule</title>
<path fill="none" stroke="#000000" d="M1721,-122.0225C1721,-139.3734 1721,-163 1721,-163 1721,-163 1374.8407,-163 1374.8407,-163"/>
<polygon fill="#000000" stroke="#000000" points="1374.8408,-159.5001 1364.8407,-163 1374.8407,-166.5001 1374.8408,-159.5001"/>
</g>
<!-- FaqComponent -->
<g id="node7" class="node">
<title>FaqComponent</title>
<polygon fill="#ffffb3" stroke="#000000" points="1640.3301,-122 1537.6699,-122 1537.6699,-86 1640.3301,-86 1640.3301,-122"/>
<text text-anchor="middle" x="1589" y="-99.8" font-family="Times,serif" font-size="14.00" fill="#000000">FaqComponent</text>
</g>
<!-- FaqComponent&#45;&gt;AppModule -->
<g id="edge7" class="edge">
<title>FaqComponent&#45;&gt;AppModule</title>
<path fill="none" stroke="#000000" d="M1589,-122.0091C1589,-138.0494 1589,-159 1589,-159 1589,-159 1374.8551,-159 1374.8551,-159"/>
<polygon fill="#000000" stroke="#000000" points="1374.8552,-155.5001 1364.8551,-159 1374.8551,-162.5001 1374.8552,-155.5001"/>
</g>
<!-- FooterComponent -->
<g id="node8" class="node">
<title>FooterComponent</title>
<polygon fill="#ffffb3" stroke="#000000" points="1519.8809,-122 1402.1191,-122 1402.1191,-86 1519.8809,-86 1519.8809,-122"/>
<text text-anchor="middle" x="1461" y="-99.8" font-family="Times,serif" font-size="14.00" fill="#000000">FooterComponent</text>
</g>
<!-- FooterComponent&#45;&gt;AppModule -->
<g id="edge8" class="edge">
<title>FooterComponent&#45;&gt;AppModule</title>
<path fill="none" stroke="#000000" d="M1461,-122.1243C1461,-136.7832 1461,-155 1461,-155 1461,-155 1374.779,-155 1374.779,-155"/>
<polygon fill="#000000" stroke="#000000" points="1374.7791,-151.5001 1364.779,-155 1374.779,-158.5001 1374.7791,-151.5001"/>
</g>
<!-- HeaderComponent -->
<g id="node9" class="node">
<title>HeaderComponent</title>
<polygon fill="#ffffb3" stroke="#000000" points="1383.7437,-122 1262.2563,-122 1262.2563,-86 1383.7437,-86 1383.7437,-122"/>
<text text-anchor="middle" x="1323" y="-99.8" font-family="Times,serif" font-size="14.00" fill="#000000">HeaderComponent</text>
</g>
<!-- HeaderComponent&#45;&gt;AppModule -->
<g id="edge9" class="edge">
<title>HeaderComponent&#45;&gt;AppModule</title>
<path fill="none" stroke="#000000" d="M1323,-122.1061C1323,-122.1061 1323,-140.991 1323,-140.991"/>
<polygon fill="#000000" stroke="#000000" points="1319.5001,-140.9909 1323,-150.991 1326.5001,-140.991 1319.5001,-140.9909"/>
</g>
<!-- HistoryComponent -->
<g id="node10" class="node">
<title>HistoryComponent</title>
<polygon fill="#ffffb3" stroke="#000000" points="1243.8258,-122 1120.1742,-122 1120.1742,-86 1243.8258,-86 1243.8258,-122"/>
<text text-anchor="middle" x="1182" y="-99.8" font-family="Times,serif" font-size="14.00" fill="#000000">HistoryComponent</text>
</g>
<!-- HistoryComponent&#45;&gt;AppModule -->
<g id="edge10" class="edge">
<title>HistoryComponent&#45;&gt;AppModule</title>
<path fill="none" stroke="#000000" d="M1182,-122.1243C1182,-136.7832 1182,-155 1182,-155 1182,-155 1271.0771,-155 1271.0771,-155"/>
<polygon fill="#000000" stroke="#000000" points="1271.0771,-158.5001 1281.0771,-155 1271.0771,-151.5001 1271.0771,-158.5001"/>
</g>
<!-- IndexComponent -->
<g id="node11" class="node">
<title>IndexComponent</title>
<polygon fill="#ffffb3" stroke="#000000" points="1102.7078,-122 989.2922,-122 989.2922,-86 1102.7078,-86 1102.7078,-122"/>
<text text-anchor="middle" x="1046" y="-99.8" font-family="Times,serif" font-size="14.00" fill="#000000">IndexComponent</text>
</g>
<!-- IndexComponent&#45;&gt;AppModule -->
<g id="edge11" class="edge">
<title>IndexComponent&#45;&gt;AppModule</title>
<path fill="none" stroke="#000000" d="M1046,-122.0091C1046,-138.0494 1046,-159 1046,-159 1046,-159 1271.2304,-159 1271.2304,-159"/>
<polygon fill="#000000" stroke="#000000" points="1271.2304,-162.5001 1281.2304,-159 1271.2304,-155.5001 1271.2304,-162.5001"/>
</g>
<!-- LegalAdviceComponent -->
<g id="node12" class="node">
<title>LegalAdviceComponent</title>
<polygon fill="#ffffb3" stroke="#000000" points="971.6316,-122 818.3684,-122 818.3684,-86 971.6316,-86 971.6316,-122"/>
<text text-anchor="middle" x="895" y="-99.8" font-family="Times,serif" font-size="14.00" fill="#000000">LegalAdviceComponent</text>
</g>
<!-- LegalAdviceComponent&#45;&gt;AppModule -->
<g id="edge12" class="edge">
<title>LegalAdviceComponent&#45;&gt;AppModule</title>
<path fill="none" stroke="#000000" d="M895,-122.0225C895,-139.3734 895,-163 895,-163 895,-163 1271.1823,-163 1271.1823,-163"/>
<polygon fill="#000000" stroke="#000000" points="1271.1823,-166.5001 1281.1823,-163 1271.1822,-159.5001 1271.1823,-166.5001"/>
</g>
<!-- LegalExpressComponent -->
<g id="node13" class="node">
<title>LegalExpressComponent</title>
<polygon fill="#ffffb3" stroke="#000000" points="799.5225,-122 642.4775,-122 642.4775,-86 799.5225,-86 799.5225,-122"/>
<text text-anchor="middle" x="721" y="-99.8" font-family="Times,serif" font-size="14.00" fill="#000000">LegalExpressComponent</text>
</g>
<!-- LegalExpressComponent&#45;&gt;AppModule -->
<g id="edge13" class="edge">
<title>LegalExpressComponent&#45;&gt;AppModule</title>
<path fill="none" stroke="#000000" d="M721,-122.2222C721,-140.8285 721,-167 721,-167 721,-167 1271.1465,-167 1271.1465,-167"/>
<polygon fill="#000000" stroke="#000000" points="1271.1465,-170.5001 1281.1465,-167 1271.1464,-163.5001 1271.1465,-170.5001"/>
</g>
<!-- LegalRegionalComponent -->
<g id="node14" class="node">
<title>LegalRegionalComponent</title>
<polygon fill="#ffffb3" stroke="#000000" points="623.752,-122 460.248,-122 460.248,-86 623.752,-86 623.752,-122"/>
<text text-anchor="middle" x="542" y="-99.8" font-family="Times,serif" font-size="14.00" fill="#000000">LegalRegionalComponent</text>
</g>
<!-- LegalRegionalComponent&#45;&gt;AppModule -->
<g id="edge14" class="edge">
<title>LegalRegionalComponent&#45;&gt;AppModule</title>
<path fill="none" stroke="#000000" d="M542,-122.308C542,-142.1455 542,-171 542,-171 542,-171 1271.2862,-171 1271.2862,-171"/>
<polygon fill="#000000" stroke="#000000" points="1271.2862,-174.5001 1281.2862,-171 1271.2861,-167.5001 1271.2862,-174.5001"/>
</g>
<!-- TacComponent -->
<g id="node15" class="node">
<title>TacComponent</title>
<polygon fill="#ffffb3" stroke="#000000" points="442.3147,-122 339.6853,-122 339.6853,-86 442.3147,-86 442.3147,-122"/>
<text text-anchor="middle" x="391" y="-99.8" font-family="Times,serif" font-size="14.00" fill="#000000">TacComponent</text>
</g>
<!-- TacComponent&#45;&gt;AppModule -->
<g id="edge15" class="edge">
<title>TacComponent&#45;&gt;AppModule</title>
<path fill="none" stroke="#000000" d="M391,-122.2843C391,-143.3211 391,-175 391,-175 391,-175 1271.1433,-175 1271.1433,-175"/>
<polygon fill="#000000" stroke="#000000" points="1271.1433,-178.5001 1281.1433,-175 1271.1433,-171.5001 1271.1433,-178.5001"/>
</g>
<!-- TacExpressComponent -->
<g id="node16" class="node">
<title>TacExpressComponent</title>
<polygon fill="#ffffb3" stroke="#000000" points="322.1317,-122 175.8683,-122 175.8683,-86 322.1317,-86 322.1317,-122"/>
<text text-anchor="middle" x="249" y="-99.8" font-family="Times,serif" font-size="14.00" fill="#000000">TacExpressComponent</text>
</g>
<!-- TacExpressComponent&#45;&gt;AppModule -->
<g id="edge16" class="edge">
<title>TacExpressComponent&#45;&gt;AppModule</title>
<path fill="none" stroke="#000000" d="M249,-122.1554C249,-144.3519 249,-179 249,-179 249,-179 1271.2276,-179 1271.2276,-179"/>
<polygon fill="#000000" stroke="#000000" points="1271.2276,-182.5001 1281.2276,-179 1271.2275,-175.5001 1271.2276,-182.5001"/>
</g>
<!-- AppComponent  -->
<g id="node19" class="node">
<title>AppComponent </title>
<polygon fill="#80b1d3" stroke="#000000" points="1377.439,-252 1268.561,-252 1268.561,-216 1377.439,-216 1377.439,-252"/>
<text text-anchor="middle" x="1323" y="-229.8" font-family="Times,serif" font-size="14.00" fill="#000000">AppComponent </text>
</g>
<!-- AppModule&#45;&gt;AppComponent  -->
<g id="edge18" class="edge">
<title>AppModule&#45;&gt;AppComponent </title>
<path fill="none" stroke="#000000" stroke-dasharray="1,5" d="M1323,-187.1061C1323,-187.1061 1323,-205.991 1323,-205.991"/>
<polygon fill="#000000" stroke="#000000" points="1319.5001,-205.9909 1323,-215.991 1326.5001,-205.991 1319.5001,-205.9909"/>
</g>
<!-- AppRoutingModule -->
<g id="node18" class="node">
<title>AppRoutingModule</title>
<polygon fill="#8dd3c7" stroke="#000000" points="152.2744,-122 149.2744,-126 128.2744,-126 125.2744,-122 23.7256,-122 23.7256,-86 152.2744,-86 152.2744,-122"/>
<text text-anchor="middle" x="88" y="-99.8" font-family="Times,serif" font-size="14.00" fill="#000000">AppRoutingModule</text>
</g>
<!-- AppRoutingModule&#45;&gt;AppModule -->
<g id="edge17" class="edge">
<title>AppRoutingModule&#45;&gt;AppModule</title>
<path fill="none" stroke="#000000" d="M88,-122.3228C88,-145.6602 88,-183 88,-183 88,-183 1271.2017,-183 1271.2017,-183"/>
<polygon fill="#000000" stroke="#000000" points="1271.2017,-186.5001 1281.2017,-183 1271.2016,-179.5001 1271.2017,-186.5001"/>
</g>
</g>
</svg>
