<?xml version="1.0" encoding="UTF-8" standalone="no"?>
<!DOCTYPE svg PUBLIC "-//W3C//DTD SVG 1.1//EN"
 "http://www.w3.org/Graphics/SVG/1.1/DTD/svg11.dtd">
<!-- Generated by graphviz version 2.40.1 (20161225.0304)
 -->
<!-- Title: dependencies Pages: 1 -->
<svg width="2042pt" height="211pt"
 viewBox="0.00 0.00 2042.00 211.00" xmlns="http://www.w3.org/2000/svg" xmlns:xlink="http://www.w3.org/1999/xlink">
<g id="graph0" class="graph" transform="scale(1 1) rotate(0) translate(4 207)">
<title>dependencies</title>
<polygon fill="#ffffff" stroke="transparent" points="-4,4 -4,-207 2038,-207 2038,4 -4,4"/>
<text text-anchor="start" x="996.0091" y="-42.4" font-family="sans-serif" font-weight="bold" font-size="14.00" fill="#000000">Legend</text>
<polygon fill="#ffffb3" stroke="transparent" points="783,-10 783,-30 803,-30 803,-10 783,-10"/>
<text text-anchor="start" x="806.629" y="-15.4" font-family="sans-serif" font-size="14.00" fill="#000000"> &#160;Declarations</text>
<polygon fill="#8dd3c7" stroke="transparent" points="896,-10 896,-30 916,-30 916,-10 896,-10"/>
<text text-anchor="start" x="919.7251" y="-15.4" font-family="sans-serif" font-size="14.00" fill="#000000"> &#160;Module</text>
<polygon fill="#80b1d3" stroke="transparent" points="982,-10 982,-30 1002,-30 1002,-10 982,-10"/>
<text text-anchor="start" x="1005.7812" y="-15.4" font-family="sans-serif" font-size="14.00" fill="#000000"> &#160;Bootstrap</text>
<polygon fill="#fdb462" stroke="transparent" points="1079,-10 1079,-30 1099,-30 1099,-10 1079,-10"/>
<text text-anchor="start" x="1102.6732" y="-15.4" font-family="sans-serif" font-size="14.00" fill="#000000"> &#160;Providers</text>
<polygon fill="#fb8072" stroke="transparent" points="1175,-10 1175,-30 1195,-30 1195,-10 1175,-10"/>
<text text-anchor="start" x="1198.7258" y="-15.4" font-family="sans-serif" font-size="14.00" fill="#000000"> &#160;Exports</text>
<g id="clust1" class="cluster">
<title>cluster_AttractionsModule</title>
<polygon fill="none" stroke="#000000" stroke-dasharray="1,5" points="8,-70 8,-195 2026,-195 2026,-70 8,-70"/>
</g>
<g id="clust2" class="cluster">
<title>cluster_AttractionsModule_declarations</title>
<polygon fill="none" stroke="#000000" points="206,-78 206,-130 2018,-130 2018,-78 206,-78"/>
</g>
<g id="clust14" class="cluster">
<title>cluster_AttractionsModule_imports</title>
<polygon fill="none" stroke="#000000" points="16,-78 16,-130 198,-130 198,-78 16,-78"/>
</g>
<!-- BahuichivoComponent -->
<g id="node1" class="node">
<title>BahuichivoComponent</title>
<polygon fill="#ffffb3" stroke="#000000" points="2009.8794,-122 1864.1206,-122 1864.1206,-86 2009.8794,-86 2009.8794,-122"/>
<text text-anchor="middle" x="1937" y="-99.8" font-family="Times,serif" font-size="14.00" fill="#000000">BahuichivoComponent</text>
</g>
<!-- AttractionsModule -->
<g id="node12" class="node">
<title>AttractionsModule</title>
<polygon fill="#8dd3c7" stroke="#000000" points="1095.7534,-187 1092.7534,-191 1071.7534,-191 1068.7534,-187 974.2466,-187 974.2466,-151 1095.7534,-151 1095.7534,-187"/>
<text text-anchor="middle" x="1035" y="-164.8" font-family="Times,serif" font-size="14.00" fill="#000000">AttractionsModule</text>
</g>
<!-- BahuichivoComponent&#45;&gt;AttractionsModule -->
<g id="edge1" class="edge">
<title>BahuichivoComponent&#45;&gt;AttractionsModule</title>
<path fill="none" stroke="#000000" d="M1937,-122.0908C1937,-145.1328 1937,-182 1937,-182 1937,-182 1105.9357,-182 1105.9357,-182"/>
<polygon fill="#000000" stroke="#000000" points="1105.9358,-178.5001 1095.9357,-182 1105.9357,-185.5001 1105.9358,-178.5001"/>
</g>
<!-- BarrancasCobreComponent -->
<g id="node2" class="node">
<title>BarrancasCobreComponent</title>
<polygon fill="#ffffb3" stroke="#000000" points="1845.5057,-122 1674.4943,-122 1674.4943,-86 1845.5057,-86 1845.5057,-122"/>
<text text-anchor="middle" x="1760" y="-99.8" font-family="Times,serif" font-size="14.00" fill="#000000">BarrancasCobreComponent</text>
</g>
<!-- BarrancasCobreComponent&#45;&gt;AttractionsModule -->
<g id="edge2" class="edge">
<title>BarrancasCobreComponent&#45;&gt;AttractionsModule</title>
<path fill="none" stroke="#000000" d="M1760,-122.2843C1760,-143.3211 1760,-175 1760,-175 1760,-175 1105.8768,-175 1105.8768,-175"/>
<polygon fill="#000000" stroke="#000000" points="1105.8769,-171.5001 1095.8768,-175 1105.8768,-178.5001 1105.8769,-171.5001"/>
</g>
<!-- ChepexploraComponent -->
<g id="node3" class="node">
<title>ChepexploraComponent</title>
<polygon fill="#ffffb3" stroke="#000000" points="1656.3641,-122 1503.6359,-122 1503.6359,-86 1656.3641,-86 1656.3641,-122"/>
<text text-anchor="middle" x="1580" y="-99.8" font-family="Times,serif" font-size="14.00" fill="#000000">ChepexploraComponent</text>
</g>
<!-- ChepexploraComponent&#45;&gt;AttractionsModule -->
<g id="edge3" class="edge">
<title>ChepexploraComponent&#45;&gt;AttractionsModule</title>
<path fill="none" stroke="#000000" d="M1580,-122.1061C1580,-141.3391 1580,-169 1580,-169 1580,-169 1105.932,-169 1105.932,-169"/>
<polygon fill="#000000" stroke="#000000" points="1105.9321,-165.5001 1095.932,-169 1105.932,-172.5001 1105.9321,-165.5001"/>
</g>
<!-- ChihuahuaComponent -->
<g id="node4" class="node">
<title>ChihuahuaComponent</title>
<polygon fill="#ffffb3" stroke="#000000" points="1485.9888,-122 1344.0112,-122 1344.0112,-86 1485.9888,-86 1485.9888,-122"/>
<text text-anchor="middle" x="1415" y="-99.8" font-family="Times,serif" font-size="14.00" fill="#000000">ChihuahuaComponent</text>
</g>
<!-- ChihuahuaComponent&#45;&gt;AttractionsModule -->
<g id="edge4" class="edge">
<title>ChihuahuaComponent&#45;&gt;AttractionsModule</title>
<path fill="none" stroke="#000000" d="M1415,-122.0225C1415,-139.3734 1415,-163 1415,-163 1415,-163 1106.0536,-163 1106.0536,-163"/>
<polygon fill="#000000" stroke="#000000" points="1106.0536,-159.5001 1096.0536,-163 1106.0535,-166.5001 1106.0536,-159.5001"/>
</g>
<!-- CreelComponent -->
<g id="node5" class="node">
<title>CreelComponent</title>
<polygon fill="#ffffb3" stroke="#000000" points="1325.6499,-122 1214.3501,-122 1214.3501,-86 1325.6499,-86 1325.6499,-122"/>
<text text-anchor="middle" x="1270" y="-99.8" font-family="Times,serif" font-size="14.00" fill="#000000">CreelComponent</text>
</g>
<!-- CreelComponent&#45;&gt;AttractionsModule -->
<g id="edge5" class="edge">
<title>CreelComponent&#45;&gt;AttractionsModule</title>
<path fill="none" stroke="#000000" d="M1270,-122.2396C1270,-137.5706 1270,-157 1270,-157 1270,-157 1105.824,-157 1105.824,-157"/>
<polygon fill="#000000" stroke="#000000" points="1105.824,-153.5001 1095.824,-157 1105.8239,-160.5001 1105.824,-153.5001"/>
</g>
<!-- CuauhtemocComponent -->
<g id="node6" class="node">
<title>CuauhtemocComponent</title>
<polygon fill="#ffffb3" stroke="#000000" points="1196.094,-122 1043.906,-122 1043.906,-86 1196.094,-86 1196.094,-122"/>
<text text-anchor="middle" x="1120" y="-99.8" font-family="Times,serif" font-size="14.00" fill="#000000">CuauhtemocComponent</text>
</g>
<!-- CuauhtemocComponent&#45;&gt;AttractionsModule -->
<g id="edge6" class="edge">
<title>CuauhtemocComponent&#45;&gt;AttractionsModule</title>
<path fill="none" stroke="#000000" d="M1069.9148,-122.1061C1069.9148,-122.1061 1069.9148,-140.991 1069.9148,-140.991"/>
<polygon fill="#000000" stroke="#000000" points="1066.4149,-140.9909 1069.9148,-150.991 1073.4149,-140.991 1066.4149,-140.9909"/>
</g>
<!-- DestinationsComponent -->
<g id="node7" class="node">
<title>DestinationsComponent</title>
<polygon fill="#ffffb3" stroke="#000000" points="1025.8201,-122 874.1799,-122 874.1799,-86 1025.8201,-86 1025.8201,-122"/>
<text text-anchor="middle" x="950" y="-99.8" font-family="Times,serif" font-size="14.00" fill="#000000">DestinationsComponent</text>
</g>
<!-- DestinationsComponent&#45;&gt;AttractionsModule -->
<g id="edge7" class="edge">
<title>DestinationsComponent&#45;&gt;AttractionsModule</title>
<path fill="none" stroke="#000000" d="M999.8917,-122.1061C999.8917,-122.1061 999.8917,-140.991 999.8917,-140.991"/>
<polygon fill="#000000" stroke="#000000" points="996.3917,-140.9909 999.8917,-150.991 1003.3917,-140.991 996.3917,-140.9909"/>
</g>
<!-- DetailsComponent -->
<g id="node8" class="node">
<title>DetailsComponent</title>
<polygon fill="#ffffb3" stroke="#000000" points="856.4846,-122 735.5154,-122 735.5154,-86 856.4846,-86 856.4846,-122"/>
<text text-anchor="middle" x="796" y="-99.8" font-family="Times,serif" font-size="14.00" fill="#000000">DetailsComponent</text>
</g>
<!-- DetailsComponent&#45;&gt;AttractionsModule -->
<g id="edge8" class="edge">
<title>DetailsComponent&#45;&gt;AttractionsModule</title>
<path fill="none" stroke="#000000" d="M796,-122.2396C796,-137.5706 796,-157 796,-157 796,-157 964.0718,-157 964.0718,-157"/>
<polygon fill="#000000" stroke="#000000" points="964.0718,-160.5001 974.0718,-157 964.0718,-153.5001 964.0718,-160.5001"/>
</g>
<!-- ElFuerteComponent -->
<g id="node9" class="node">
<title>ElFuerteComponent</title>
<polygon fill="#ffffb3" stroke="#000000" points="717.5394,-122 588.4606,-122 588.4606,-86 717.5394,-86 717.5394,-122"/>
<text text-anchor="middle" x="653" y="-99.8" font-family="Times,serif" font-size="14.00" fill="#000000">ElFuerteComponent</text>
</g>
<!-- ElFuerteComponent&#45;&gt;AttractionsModule -->
<g id="edge9" class="edge">
<title>ElFuerteComponent&#45;&gt;AttractionsModule</title>
<path fill="none" stroke="#000000" d="M653,-122.0225C653,-139.3734 653,-163 653,-163 653,-163 964.0486,-163 964.0486,-163"/>
<polygon fill="#000000" stroke="#000000" points="964.0486,-166.5001 974.0486,-163 964.0485,-159.5001 964.0486,-166.5001"/>
</g>
<!-- LosMochisComponent -->
<g id="node10" class="node">
<title>LosMochisComponent</title>
<polygon fill="#ffffb3" stroke="#000000" points="570.3244,-122 425.6756,-122 425.6756,-86 570.3244,-86 570.3244,-122"/>
<text text-anchor="middle" x="498" y="-99.8" font-family="Times,serif" font-size="14.00" fill="#000000">LosMochisComponent</text>
</g>
<!-- LosMochisComponent&#45;&gt;AttractionsModule -->
<g id="edge10" class="edge">
<title>LosMochisComponent&#45;&gt;AttractionsModule</title>
<path fill="none" stroke="#000000" d="M498,-122.1061C498,-141.3391 498,-169 498,-169 498,-169 964.1828,-169 964.1828,-169"/>
<polygon fill="#000000" stroke="#000000" points="964.1829,-172.5001 974.1828,-169 964.1828,-165.5001 964.1829,-172.5001"/>
</g>
<!-- NativeCommunitiesComponent -->
<g id="node11" class="node">
<title>NativeCommunitiesComponent</title>
<polygon fill="#ffffb3" stroke="#000000" points="408.0982,-122 213.9018,-122 213.9018,-86 408.0982,-86 408.0982,-122"/>
<text text-anchor="middle" x="311" y="-99.8" font-family="Times,serif" font-size="14.00" fill="#000000">NativeCommunitiesComponent</text>
</g>
<!-- NativeCommunitiesComponent&#45;&gt;AttractionsModule -->
<g id="edge11" class="edge">
<title>NativeCommunitiesComponent&#45;&gt;AttractionsModule</title>
<path fill="none" stroke="#000000" d="M311,-122.2843C311,-143.3211 311,-175 311,-175 311,-175 964.2071,-175 964.2071,-175"/>
<polygon fill="#000000" stroke="#000000" points="964.2072,-178.5001 974.2071,-175 964.2071,-171.5001 964.2072,-178.5001"/>
</g>
<!-- AttractionsRoutingModule -->
<g id="node13" class="node">
<title>AttractionsRoutingModule</title>
<polygon fill="#8dd3c7" stroke="#000000" points="190.371,-122 187.371,-126 166.371,-126 163.371,-122 23.629,-122 23.629,-86 190.371,-86 190.371,-122"/>
<text text-anchor="middle" x="107" y="-99.8" font-family="Times,serif" font-size="14.00" fill="#000000">AttractionsRoutingModule</text>
</g>
<!-- AttractionsRoutingModule&#45;&gt;AttractionsModule -->
<g id="edge12" class="edge">
<title>AttractionsRoutingModule&#45;&gt;AttractionsModule</title>
<path fill="none" stroke="#000000" d="M107,-122.0908C107,-145.1328 107,-182 107,-182 107,-182 964.1113,-182 964.1113,-182"/>
<polygon fill="#000000" stroke="#000000" points="964.1114,-185.5001 974.1113,-182 964.1113,-178.5001 964.1114,-185.5001"/>
</g>
</g>
</svg>
