<?xml version="1.0" encoding="UTF-8" standalone="no"?>
<!DOCTYPE svg PUBLIC "-//W3C//DTD SVG 1.1//EN"
 "http://www.w3.org/Graphics/SVG/1.1/DTD/svg11.dtd">
<!-- Generated by graphviz version 2.40.1 (20161225.0304)
 -->
<!-- Title: dependencies Pages: 1 -->
<svg width="902pt" height="211pt"
 viewBox="0.00 0.00 902.00 211.00" xmlns="http://www.w3.org/2000/svg" xmlns:xlink="http://www.w3.org/1999/xlink">
<g id="graph0" class="graph" transform="scale(1 1) rotate(0) translate(4 207)">
<title>dependencies</title>
<polygon fill="#ffffff" stroke="transparent" points="-4,4 -4,-207 898,-207 898,4 -4,4"/>
<text text-anchor="start" x="426.0091" y="-42.4" font-family="sans-serif" font-weight="bold" font-size="14.00" fill="#000000">Legend</text>
<polygon fill="#ffffb3" stroke="transparent" points="213,-10 213,-30 233,-30 233,-10 213,-10"/>
<text text-anchor="start" x="236.629" y="-15.4" font-family="sans-serif" font-size="14.00" fill="#000000"> &#160;Declarations</text>
<polygon fill="#8dd3c7" stroke="transparent" points="326,-10 326,-30 346,-30 346,-10 326,-10"/>
<text text-anchor="start" x="349.7251" y="-15.4" font-family="sans-serif" font-size="14.00" fill="#000000"> &#160;Module</text>
<polygon fill="#80b1d3" stroke="transparent" points="412,-10 412,-30 432,-30 432,-10 412,-10"/>
<text text-anchor="start" x="435.7812" y="-15.4" font-family="sans-serif" font-size="14.00" fill="#000000"> &#160;Bootstrap</text>
<polygon fill="#fdb462" stroke="transparent" points="509,-10 509,-30 529,-30 529,-10 509,-10"/>
<text text-anchor="start" x="532.6732" y="-15.4" font-family="sans-serif" font-size="14.00" fill="#000000"> &#160;Providers</text>
<polygon fill="#fb8072" stroke="transparent" points="605,-10 605,-30 625,-30 625,-10 605,-10"/>
<text text-anchor="start" x="628.7258" y="-15.4" font-family="sans-serif" font-size="14.00" fill="#000000"> &#160;Exports</text>
<g id="clust1" class="cluster">
<title>cluster_RchModule</title>
<polygon fill="none" stroke="#000000" stroke-dasharray="1,5" points="8,-70 8,-195 886,-195 886,-70 8,-70"/>
</g>
<g id="clust2" class="cluster">
<title>cluster_RchModule_declarations</title>
<polygon fill="none" stroke="#000000" points="168,-78 168,-130 878,-130 878,-78 168,-78"/>
</g>
<g id="clust8" class="cluster">
<title>cluster_RchModule_imports</title>
<polygon fill="none" stroke="#000000" points="16,-78 16,-130 160,-130 160,-78 16,-78"/>
</g>
<!-- CommitComponent -->
<g id="node1" class="node">
<title>CommitComponent</title>
<polygon fill="#ffffb3" stroke="#000000" points="869.7316,-122 742.2684,-122 742.2684,-86 869.7316,-86 869.7316,-122"/>
<text text-anchor="middle" x="806" y="-99.8" font-family="Times,serif" font-size="14.00" fill="#000000">CommitComponent</text>
</g>
<!-- RchModule -->
<g id="node6" class="node">
<title>RchModule</title>
<polygon fill="#8dd3c7" stroke="#000000" points="483.1011,-187 480.1011,-191 459.1011,-191 456.1011,-187 400.8989,-187 400.8989,-151 483.1011,-151 483.1011,-187"/>
<text text-anchor="middle" x="442" y="-164.8" font-family="Times,serif" font-size="14.00" fill="#000000">RchModule</text>
</g>
<!-- CommitComponent&#45;&gt;RchModule -->
<g id="edge1" class="edge">
<title>CommitComponent&#45;&gt;RchModule</title>
<path fill="none" stroke="#000000" d="M806,-122.2843C806,-143.3211 806,-175 806,-175 806,-175 493.401,-175 493.401,-175"/>
<polygon fill="#000000" stroke="#000000" points="493.4011,-171.5001 483.401,-175 493.401,-178.5001 493.4011,-171.5001"/>
</g>
<!-- ConfirmComponent -->
<g id="node2" class="node">
<title>ConfirmComponent</title>
<polygon fill="#ffffb3" stroke="#000000" points="724.2716,-122 595.7284,-122 595.7284,-86 724.2716,-86 724.2716,-122"/>
<text text-anchor="middle" x="660" y="-99.8" font-family="Times,serif" font-size="14.00" fill="#000000">ConfirmComponent</text>
</g>
<!-- ConfirmComponent&#45;&gt;RchModule -->
<g id="edge2" class="edge">
<title>ConfirmComponent&#45;&gt;RchModule</title>
<path fill="none" stroke="#000000" d="M660,-122.0225C660,-139.3734 660,-163 660,-163 660,-163 493.2604,-163 493.2604,-163"/>
<polygon fill="#000000" stroke="#000000" points="493.2605,-159.5001 483.2604,-163 493.2604,-166.5001 493.2605,-159.5001"/>
</g>
<!-- CostBoxComponent -->
<g id="node3" class="node">
<title>CostBoxComponent</title>
<polygon fill="#ffffb3" stroke="#000000" points="577.3412,-122 446.6588,-122 446.6588,-86 577.3412,-86 577.3412,-122"/>
<text text-anchor="middle" x="512" y="-99.8" font-family="Times,serif" font-size="14.00" fill="#000000">CostBoxComponent</text>
</g>
<!-- CostBoxComponent&#45;&gt;RchModule -->
<g id="edge3" class="edge">
<title>CostBoxComponent&#45;&gt;RchModule</title>
<path fill="none" stroke="#000000" d="M464.9401,-122.1061C464.9401,-122.1061 464.9401,-140.991 464.9401,-140.991"/>
<polygon fill="#000000" stroke="#000000" points="461.4401,-140.9909 464.9401,-150.991 468.4401,-140.991 461.4401,-140.9909"/>
</g>
<!-- MainComponent -->
<g id="node4" class="node">
<title>MainComponent</title>
<polygon fill="#ffffb3" stroke="#000000" points="428.3823,-122 317.6177,-122 317.6177,-86 428.3823,-86 428.3823,-122"/>
<text text-anchor="middle" x="373" y="-99.8" font-family="Times,serif" font-size="14.00" fill="#000000">MainComponent</text>
</g>
<!-- MainComponent&#45;&gt;RchModule -->
<g id="edge4" class="edge">
<title>MainComponent&#45;&gt;RchModule</title>
<path fill="none" stroke="#000000" d="M414.6953,-122.1061C414.6953,-122.1061 414.6953,-140.991 414.6953,-140.991"/>
<polygon fill="#000000" stroke="#000000" points="411.1954,-140.9909 414.6953,-150.991 418.1954,-140.991 411.1954,-140.9909"/>
</g>
<!-- ReceiptComponent -->
<g id="node5" class="node">
<title>ReceiptComponent</title>
<polygon fill="#ffffb3" stroke="#000000" points="300.094,-122 175.906,-122 175.906,-86 300.094,-86 300.094,-122"/>
<text text-anchor="middle" x="238" y="-99.8" font-family="Times,serif" font-size="14.00" fill="#000000">ReceiptComponent</text>
</g>
<!-- ReceiptComponent&#45;&gt;RchModule -->
<g id="edge5" class="edge">
<title>ReceiptComponent&#45;&gt;RchModule</title>
<path fill="none" stroke="#000000" d="M238,-122.0225C238,-139.3734 238,-163 238,-163 238,-163 390.7176,-163 390.7176,-163"/>
<polygon fill="#000000" stroke="#000000" points="390.7176,-166.5001 400.7176,-163 390.7175,-159.5001 390.7176,-166.5001"/>
</g>
<!-- RchRoutingModule -->
<g id="node7" class="node">
<title>RchRoutingModule</title>
<polygon fill="#8dd3c7" stroke="#000000" points="151.719,-122 148.719,-126 127.719,-126 124.719,-122 24.281,-122 24.281,-86 151.719,-86 151.719,-122"/>
<text text-anchor="middle" x="88" y="-99.8" font-family="Times,serif" font-size="14.00" fill="#000000">RchRoutingModule</text>
</g>
<!-- RchRoutingModule&#45;&gt;RchModule -->
<g id="edge6" class="edge">
<title>RchRoutingModule&#45;&gt;RchModule</title>
<path fill="none" stroke="#000000" d="M88,-122.2843C88,-143.3211 88,-175 88,-175 88,-175 390.6989,-175 390.6989,-175"/>
<polygon fill="#000000" stroke="#000000" points="390.6989,-178.5001 400.6989,-175 390.6988,-171.5001 390.6989,-178.5001"/>
</g>
</g>
</svg>
