<?xml version="1.0" encoding="UTF-8" standalone="no"?>
<!DOCTYPE svg PUBLIC "-//W3C//DTD SVG 1.1//EN"
 "http://www.w3.org/Graphics/SVG/1.1/DTD/svg11.dtd">
<!-- Generated by graphviz version 2.40.1 (20161225.0304)
 -->
<!-- Title: dependencies Pages: 1 -->
<svg width="2123pt" height="211pt"
 viewBox="0.00 0.00 2123.00 211.00" xmlns="http://www.w3.org/2000/svg" xmlns:xlink="http://www.w3.org/1999/xlink">
<g id="graph0" class="graph" transform="scale(1 1) rotate(0) translate(4 207)">
<title>dependencies</title>
<polygon fill="#ffffff" stroke="transparent" points="-4,4 -4,-207 2119,-207 2119,4 -4,4"/>
<text text-anchor="start" x="1036.5091" y="-42.4" font-family="sans-serif" font-weight="bold" font-size="14.00" fill="#000000">Legend</text>
<polygon fill="#ffffb3" stroke="transparent" points="823.5,-10 823.5,-30 843.5,-30 843.5,-10 823.5,-10"/>
<text text-anchor="start" x="847.129" y="-15.4" font-family="sans-serif" font-size="14.00" fill="#000000"> &#160;Declarations</text>
<polygon fill="#8dd3c7" stroke="transparent" points="936.5,-10 936.5,-30 956.5,-30 956.5,-10 936.5,-10"/>
<text text-anchor="start" x="960.2251" y="-15.4" font-family="sans-serif" font-size="14.00" fill="#000000"> &#160;Module</text>
<polygon fill="#80b1d3" stroke="transparent" points="1022.5,-10 1022.5,-30 1042.5,-30 1042.5,-10 1022.5,-10"/>
<text text-anchor="start" x="1046.2812" y="-15.4" font-family="sans-serif" font-size="14.00" fill="#000000"> &#160;Bootstrap</text>
<polygon fill="#fdb462" stroke="transparent" points="1119.5,-10 1119.5,-30 1139.5,-30 1139.5,-10 1119.5,-10"/>
<text text-anchor="start" x="1143.1732" y="-15.4" font-family="sans-serif" font-size="14.00" fill="#000000"> &#160;Providers</text>
<polygon fill="#fb8072" stroke="transparent" points="1215.5,-10 1215.5,-30 1235.5,-30 1235.5,-10 1215.5,-10"/>
<text text-anchor="start" x="1239.2258" y="-15.4" font-family="sans-serif" font-size="14.00" fill="#000000"> &#160;Exports</text>
<g id="clust1" class="cluster">
<title>cluster_RchModule</title>
<polygon fill="none" stroke="#000000" stroke-dasharray="1,5" points="8,-70 8,-195 2107,-195 2107,-70 8,-70"/>
</g>
<g id="clust2" class="cluster">
<title>cluster_RchModule_declarations</title>
<polygon fill="none" stroke="#000000" points="168,-78 168,-130 2099,-130 2099,-78 168,-78"/>
</g>
<g id="clust17" class="cluster">
<title>cluster_RchModule_imports</title>
<polygon fill="none" stroke="#000000" points="16,-78 16,-130 160,-130 160,-78 16,-78"/>
</g>
<!-- CommitComponent -->
<g id="node1" class="node">
<title>CommitComponent</title>
<polygon fill="#ffffb3" stroke="#000000" points="2090.7316,-122 1963.2684,-122 1963.2684,-86 2090.7316,-86 2090.7316,-122"/>
<text text-anchor="middle" x="2027" y="-99.8" font-family="Times,serif" font-size="14.00" fill="#000000">CommitComponent</text>
</g>
<!-- RchModule -->
<g id="node15" class="node">
<title>RchModule</title>
<polygon fill="#8dd3c7" stroke="#000000" points="1081.1011,-187 1078.1011,-191 1057.1011,-191 1054.1011,-187 998.8989,-187 998.8989,-151 1081.1011,-151 1081.1011,-187"/>
<text text-anchor="middle" x="1040" y="-164.8" font-family="Times,serif" font-size="14.00" fill="#000000">RchModule</text>
</g>
<!-- CommitComponent&#45;&gt;RchModule -->
<g id="edge1" class="edge">
<title>CommitComponent&#45;&gt;RchModule</title>
<path fill="none" stroke="#000000" d="M2027,-122.3228C2027,-145.6602 2027,-183 2027,-183 2027,-183 1091.1536,-183 1091.1536,-183"/>
<polygon fill="#000000" stroke="#000000" points="1091.1536,-179.5001 1081.1536,-183 1091.1535,-186.5001 1091.1536,-179.5001"/>
</g>
<!-- ConfirmComponent -->
<g id="node2" class="node">
<title>ConfirmComponent</title>
<polygon fill="#ffffb3" stroke="#000000" points="1945.2716,-122 1816.7284,-122 1816.7284,-86 1945.2716,-86 1945.2716,-122"/>
<text text-anchor="middle" x="1881" y="-99.8" font-family="Times,serif" font-size="14.00" fill="#000000">ConfirmComponent</text>
</g>
<!-- ConfirmComponent&#45;&gt;RchModule -->
<g id="edge2" class="edge">
<title>ConfirmComponent&#45;&gt;RchModule</title>
<path fill="none" stroke="#000000" d="M1881,-122.2921C1881,-144.2057 1881,-178 1881,-178 1881,-178 1091.1325,-178 1091.1325,-178"/>
<polygon fill="#000000" stroke="#000000" points="1091.1325,-174.5001 1081.1325,-178 1091.1325,-181.5001 1091.1325,-174.5001"/>
</g>
<!-- CostBoxComponent -->
<g id="node3" class="node">
<title>CostBoxComponent</title>
<polygon fill="#ffffb3" stroke="#000000" points="1798.3412,-122 1667.6588,-122 1667.6588,-86 1798.3412,-86 1798.3412,-122"/>
<text text-anchor="middle" x="1733" y="-99.8" font-family="Times,serif" font-size="14.00" fill="#000000">CostBoxComponent</text>
</g>
<!-- CostBoxComponent&#45;&gt;RchModule -->
<g id="edge3" class="edge">
<title>CostBoxComponent&#45;&gt;RchModule</title>
<path fill="none" stroke="#000000" d="M1733,-122.0267C1733,-142.7672 1733,-174 1733,-174 1733,-174 1091.275,-174 1091.275,-174"/>
<polygon fill="#000000" stroke="#000000" points="1091.275,-170.5001 1081.275,-174 1091.2749,-177.5001 1091.275,-170.5001"/>
</g>
<!-- MainComponent -->
<g id="node4" class="node">
<title>MainComponent</title>
<polygon fill="#ffffb3" stroke="#000000" points="1649.3823,-122 1538.6177,-122 1538.6177,-86 1649.3823,-86 1649.3823,-122"/>
<text text-anchor="middle" x="1594" y="-99.8" font-family="Times,serif" font-size="14.00" fill="#000000">MainComponent</text>
</g>
<!-- MainComponent&#45;&gt;RchModule -->
<g id="edge4" class="edge">
<title>MainComponent&#45;&gt;RchModule</title>
<path fill="none" stroke="#000000" d="M1594,-122.1061C1594,-141.3391 1594,-169 1594,-169 1594,-169 1091.1874,-169 1091.1874,-169"/>
<polygon fill="#000000" stroke="#000000" points="1091.1875,-165.5001 1081.1874,-169 1091.1874,-172.5001 1091.1875,-165.5001"/>
</g>
<!-- PaymentComponent -->
<g id="node5" class="node">
<title>PaymentComponent</title>
<polygon fill="#ffffb3" stroke="#000000" points="1520.3258,-122 1389.6742,-122 1389.6742,-86 1520.3258,-86 1520.3258,-122"/>
<text text-anchor="middle" x="1455" y="-99.8" font-family="Times,serif" font-size="14.00" fill="#000000">PaymentComponent</text>
</g>
<!-- PaymentComponent&#45;&gt;RchModule -->
<g id="edge5" class="edge">
<title>PaymentComponent&#45;&gt;RchModule</title>
<path fill="none" stroke="#000000" d="M1455,-122.302C1455,-140.2699 1455,-165 1455,-165 1455,-165 1091.309,-165 1091.309,-165"/>
<polygon fill="#000000" stroke="#000000" points="1091.309,-161.5001 1081.309,-165 1091.309,-168.5001 1091.309,-161.5001"/>
</g>
<!-- ReceiptComponent -->
<g id="node6" class="node">
<title>ReceiptComponent</title>
<polygon fill="#ffffb3" stroke="#000000" points="1372.094,-122 1247.906,-122 1247.906,-86 1372.094,-86 1372.094,-122"/>
<text text-anchor="middle" x="1310" y="-99.8" font-family="Times,serif" font-size="14.00" fill="#000000">ReceiptComponent</text>
</g>
<!-- ReceiptComponent&#45;&gt;RchModule -->
<g id="edge6" class="edge">
<title>ReceiptComponent&#45;&gt;RchModule</title>
<path fill="none" stroke="#000000" d="M1310,-122.027C1310,-138.3976 1310,-160 1310,-160 1310,-160 1091.3011,-160 1091.3011,-160"/>
<polygon fill="#000000" stroke="#000000" points="1091.3011,-156.5001 1081.3011,-160 1091.3011,-163.5001 1091.3011,-156.5001"/>
</g>
<!-- StatusComponent -->
<g id="node7" class="node">
<title>StatusComponent</title>
<polygon fill="#ffffb3" stroke="#000000" points="1229.5563,-122 1114.4437,-122 1114.4437,-86 1229.5563,-86 1229.5563,-122"/>
<text text-anchor="middle" x="1172" y="-99.8" font-family="Times,serif" font-size="14.00" fill="#000000">StatusComponent</text>
</g>
<!-- StatusComponent&#45;&gt;RchModule -->
<g id="edge7" class="edge">
<title>StatusComponent&#45;&gt;RchModule</title>
<path fill="none" stroke="#000000" d="M1172,-122.1871C1172,-137.1824 1172,-156 1172,-156 1172,-156 1091.4035,-156 1091.4035,-156"/>
<polygon fill="#000000" stroke="#000000" points="1091.4035,-152.5001 1081.4035,-156 1091.4034,-159.5001 1091.4035,-152.5001"/>
</g>
<!-- Step1Component -->
<g id="node8" class="node">
<title>Step1Component</title>
<polygon fill="#ffffb3" stroke="#000000" points="1096.7204,-122 983.2796,-122 983.2796,-86 1096.7204,-86 1096.7204,-122"/>
<text text-anchor="middle" x="1040" y="-99.8" font-family="Times,serif" font-size="14.00" fill="#000000">Step1Component</text>
</g>
<!-- Step1Component&#45;&gt;RchModule -->
<g id="edge8" class="edge">
<title>Step1Component&#45;&gt;RchModule</title>
<path fill="none" stroke="#000000" d="M1040,-122.1061C1040,-122.1061 1040,-140.991 1040,-140.991"/>
<polygon fill="#000000" stroke="#000000" points="1036.5001,-140.9909 1040,-150.991 1043.5001,-140.991 1036.5001,-140.9909"/>
</g>
<!-- Step2Component -->
<g id="node9" class="node">
<title>Step2Component</title>
<polygon fill="#ffffb3" stroke="#000000" points="965.7204,-122 852.2796,-122 852.2796,-86 965.7204,-86 965.7204,-122"/>
<text text-anchor="middle" x="909" y="-99.8" font-family="Times,serif" font-size="14.00" fill="#000000">Step2Component</text>
</g>
<!-- Step2Component&#45;&gt;RchModule -->
<g id="edge9" class="edge">
<title>Step2Component&#45;&gt;RchModule</title>
<path fill="none" stroke="#000000" d="M909,-122.1871C909,-137.1824 909,-156 909,-156 909,-156 988.9102,-156 988.9102,-156"/>
<polygon fill="#000000" stroke="#000000" points="988.9102,-159.5001 998.9102,-156 988.9102,-152.5001 988.9102,-159.5001"/>
</g>
<!-- Step2bComponent -->
<g id="node10" class="node">
<title>Step2bComponent</title>
<polygon fill="#ffffb3" stroke="#000000" points="834.2204,-122 713.7796,-122 713.7796,-86 834.2204,-86 834.2204,-122"/>
<text text-anchor="middle" x="774" y="-99.8" font-family="Times,serif" font-size="14.00" fill="#000000">Step2bComponent</text>
</g>
<!-- Step2bComponent&#45;&gt;RchModule -->
<g id="edge10" class="edge">
<title>Step2bComponent&#45;&gt;RchModule</title>
<path fill="none" stroke="#000000" d="M774,-122.027C774,-138.3976 774,-160 774,-160 774,-160 988.7294,-160 988.7294,-160"/>
<polygon fill="#000000" stroke="#000000" points="988.7294,-163.5001 998.7294,-160 988.7293,-156.5001 988.7294,-163.5001"/>
</g>
<!-- Step3Component -->
<g id="node11" class="node">
<title>Step3Component</title>
<polygon fill="#ffffb3" stroke="#000000" points="695.7204,-122 582.2796,-122 582.2796,-86 695.7204,-86 695.7204,-122"/>
<text text-anchor="middle" x="639" y="-99.8" font-family="Times,serif" font-size="14.00" fill="#000000">Step3Component</text>
</g>
<!-- Step3Component&#45;&gt;RchModule -->
<g id="edge11" class="edge">
<title>Step3Component&#45;&gt;RchModule</title>
<path fill="none" stroke="#000000" d="M639,-122.302C639,-140.2699 639,-165 639,-165 639,-165 988.5963,-165 988.5963,-165"/>
<polygon fill="#000000" stroke="#000000" points="988.5963,-168.5001 998.5963,-165 988.5963,-161.5001 988.5963,-168.5001"/>
</g>
<!-- Step4Component -->
<g id="node12" class="node">
<title>Step4Component</title>
<polygon fill="#ffffb3" stroke="#000000" points="564.7204,-122 451.2796,-122 451.2796,-86 564.7204,-86 564.7204,-122"/>
<text text-anchor="middle" x="508" y="-99.8" font-family="Times,serif" font-size="14.00" fill="#000000">Step4Component</text>
</g>
<!-- Step4Component&#45;&gt;RchModule -->
<g id="edge12" class="edge">
<title>Step4Component&#45;&gt;RchModule</title>
<path fill="none" stroke="#000000" d="M508,-122.1061C508,-141.3391 508,-169 508,-169 508,-169 988.6975,-169 988.6975,-169"/>
<polygon fill="#000000" stroke="#000000" points="988.6976,-172.5001 998.6975,-169 988.6975,-165.5001 988.6976,-172.5001"/>
</g>
<!-- Step5Component -->
<g id="node13" class="node">
<title>Step5Component</title>
<polygon fill="#ffffb3" stroke="#000000" points="433.7204,-122 320.2796,-122 320.2796,-86 433.7204,-86 433.7204,-122"/>
<text text-anchor="middle" x="377" y="-99.8" font-family="Times,serif" font-size="14.00" fill="#000000">Step5Component</text>
</g>
<!-- Step5Component&#45;&gt;RchModule -->
<g id="edge13" class="edge">
<title>Step5Component&#45;&gt;RchModule</title>
<path fill="none" stroke="#000000" d="M377,-122.0267C377,-142.7672 377,-174 377,-174 377,-174 988.5264,-174 988.5264,-174"/>
<polygon fill="#000000" stroke="#000000" points="988.5264,-177.5001 998.5264,-174 988.5263,-170.5001 988.5264,-177.5001"/>
</g>
<!-- StopcheckDirective -->
<g id="node14" class="node">
<title>StopcheckDirective</title>
<polygon fill="#ffffb3" stroke="#000000" points="302.4004,-122 175.5996,-122 175.5996,-86 302.4004,-86 302.4004,-122"/>
<text text-anchor="middle" x="239" y="-99.8" font-family="Times,serif" font-size="14.00" fill="#000000">StopcheckDirective</text>
</g>
<!-- StopcheckDirective&#45;&gt;RchModule -->
<g id="edge14" class="edge">
<title>StopcheckDirective&#45;&gt;RchModule</title>
<path fill="none" stroke="#000000" d="M239,-122.2921C239,-144.2057 239,-178 239,-178 239,-178 988.8997,-178 988.8997,-178"/>
<polygon fill="#000000" stroke="#000000" points="988.8997,-181.5001 998.8997,-178 988.8997,-174.5001 988.8997,-181.5001"/>
</g>
<!-- RchRoutingModule -->
<g id="node16" class="node">
<title>RchRoutingModule</title>
<polygon fill="#8dd3c7" stroke="#000000" points="151.719,-122 148.719,-126 127.719,-126 124.719,-122 24.281,-122 24.281,-86 151.719,-86 151.719,-122"/>
<text text-anchor="middle" x="88" y="-99.8" font-family="Times,serif" font-size="14.00" fill="#000000">RchRoutingModule</text>
</g>
<!-- RchRoutingModule&#45;&gt;RchModule -->
<g id="edge15" class="edge">
<title>RchRoutingModule&#45;&gt;RchModule</title>
<path fill="none" stroke="#000000" d="M88,-122.3228C88,-145.6602 88,-183 88,-183 88,-183 988.7882,-183 988.7882,-183"/>
<polygon fill="#000000" stroke="#000000" points="988.7882,-186.5001 998.7882,-183 988.7882,-179.5001 988.7882,-186.5001"/>
</g>
</g>
</svg>
