<?xml version="1.0" encoding="UTF-8" standalone="no"?>
<!DOCTYPE svg PUBLIC "-//W3C//DTD SVG 1.1//EN"
 "http://www.w3.org/Graphics/SVG/1.1/DTD/svg11.dtd">
<!-- Generated by graphviz version 2.40.1 (20161225.0304)
 -->
<!-- Title: dependencies Pages: 1 -->
<svg width="1005pt" height="211pt"
 viewBox="0.00 0.00 1005.00 211.00" xmlns="http://www.w3.org/2000/svg" xmlns:xlink="http://www.w3.org/1999/xlink">
<g id="graph0" class="graph" transform="scale(1 1) rotate(0) translate(4 207)">
<title>dependencies</title>
<polygon fill="#ffffff" stroke="transparent" points="-4,4 -4,-207 1001,-207 1001,4 -4,4"/>
<text text-anchor="start" x="477.5091" y="-42.4" font-family="sans-serif" font-weight="bold" font-size="14.00" fill="#000000">Legend</text>
<polygon fill="#ffffb3" stroke="transparent" points="264.5,-10 264.5,-30 284.5,-30 284.5,-10 264.5,-10"/>
<text text-anchor="start" x="288.129" y="-15.4" font-family="sans-serif" font-size="14.00" fill="#000000"> &#160;Declarations</text>
<polygon fill="#8dd3c7" stroke="transparent" points="377.5,-10 377.5,-30 397.5,-30 397.5,-10 377.5,-10"/>
<text text-anchor="start" x="401.2251" y="-15.4" font-family="sans-serif" font-size="14.00" fill="#000000"> &#160;Module</text>
<polygon fill="#80b1d3" stroke="transparent" points="463.5,-10 463.5,-30 483.5,-30 483.5,-10 463.5,-10"/>
<text text-anchor="start" x="487.2812" y="-15.4" font-family="sans-serif" font-size="14.00" fill="#000000"> &#160;Bootstrap</text>
<polygon fill="#fdb462" stroke="transparent" points="560.5,-10 560.5,-30 580.5,-30 580.5,-10 560.5,-10"/>
<text text-anchor="start" x="584.1732" y="-15.4" font-family="sans-serif" font-size="14.00" fill="#000000"> &#160;Providers</text>
<polygon fill="#fb8072" stroke="transparent" points="656.5,-10 656.5,-30 676.5,-30 676.5,-10 656.5,-10"/>
<text text-anchor="start" x="680.2258" y="-15.4" font-family="sans-serif" font-size="14.00" fill="#000000"> &#160;Exports</text>
<g id="clust1" class="cluster">
<title>cluster_TrainsModule</title>
<polygon fill="none" stroke="#000000" stroke-dasharray="1,5" points="8,-70 8,-195 989,-195 989,-70 8,-70"/>
</g>
<g id="clust2" class="cluster">
<title>cluster_TrainsModule_declarations</title>
<polygon fill="none" stroke="#000000" points="180,-78 180,-130 981,-130 981,-78 180,-78"/>
</g>
<g id="clust8" class="cluster">
<title>cluster_TrainsModule_imports</title>
<polygon fill="none" stroke="#000000" points="16,-78 16,-130 172,-130 172,-78 16,-78"/>
</g>
<!-- ChepeExpressComponent -->
<g id="node1" class="node">
<title>ChepeExpressComponent</title>
<polygon fill="#ffffb3" stroke="#000000" points="972.9157,-122 811.0843,-122 811.0843,-86 972.9157,-86 972.9157,-122"/>
<text text-anchor="middle" x="892" y="-99.8" font-family="Times,serif" font-size="14.00" fill="#000000">ChepeExpressComponent</text>
</g>
<!-- TrainsModule -->
<g id="node6" class="node">
<title>TrainsModule</title>
<polygon fill="#8dd3c7" stroke="#000000" points="516.8133,-187 513.8133,-191 492.8133,-191 489.8133,-187 421.1867,-187 421.1867,-151 516.8133,-151 516.8133,-187"/>
<text text-anchor="middle" x="469" y="-164.8" font-family="Times,serif" font-size="14.00" fill="#000000">TrainsModule</text>
</g>
<!-- ChepeExpressComponent&#45;&gt;TrainsModule -->
<g id="edge1" class="edge">
<title>ChepeExpressComponent&#45;&gt;TrainsModule</title>
<path fill="none" stroke="#000000" d="M892,-122.2843C892,-143.3211 892,-175 892,-175 892,-175 526.7012,-175 526.7012,-175"/>
<polygon fill="#000000" stroke="#000000" points="526.7013,-171.5001 516.7012,-175 526.7012,-178.5001 526.7013,-171.5001"/>
</g>
<!-- ChepeRegionalComponent -->
<g id="node2" class="node">
<title>ChepeRegionalComponent</title>
<polygon fill="#ffffb3" stroke="#000000" points="792.6456,-122 625.3544,-122 625.3544,-86 792.6456,-86 792.6456,-122"/>
<text text-anchor="middle" x="709" y="-99.8" font-family="Times,serif" font-size="14.00" fill="#000000">ChepeRegionalComponent</text>
</g>
<!-- ChepeRegionalComponent&#45;&gt;TrainsModule -->
<g id="edge2" class="edge">
<title>ChepeRegionalComponent&#45;&gt;TrainsModule</title>
<path fill="none" stroke="#000000" d="M709,-122.0225C709,-139.3734 709,-163 709,-163 709,-163 526.7032,-163 526.7032,-163"/>
<polygon fill="#000000" stroke="#000000" points="526.7033,-159.5001 516.7032,-163 526.7032,-166.5001 526.7033,-159.5001"/>
</g>
<!-- GalleryComponent -->
<g id="node3" class="node">
<title>GalleryComponent</title>
<polygon fill="#ffffb3" stroke="#000000" points="607.8104,-122 484.1896,-122 484.1896,-86 607.8104,-86 607.8104,-122"/>
<text text-anchor="middle" x="546" y="-99.8" font-family="Times,serif" font-size="14.00" fill="#000000">GalleryComponent</text>
</g>
<!-- GalleryComponent&#45;&gt;TrainsModule -->
<g id="edge3" class="edge">
<title>GalleryComponent&#45;&gt;TrainsModule</title>
<path fill="none" stroke="#000000" d="M500.5007,-122.1061C500.5007,-122.1061 500.5007,-140.991 500.5007,-140.991"/>
<polygon fill="#000000" stroke="#000000" points="497.0008,-140.9909 500.5007,-150.991 504.0008,-140.991 497.0008,-140.9909"/>
</g>
<!-- TimesFaresComponent -->
<g id="node4" class="node">
<title>TimesFaresComponent</title>
<polygon fill="#ffffb3" stroke="#000000" points="466.1428,-122 319.8572,-122 319.8572,-86 466.1428,-86 466.1428,-122"/>
<text text-anchor="middle" x="393" y="-99.8" font-family="Times,serif" font-size="14.00" fill="#000000">TimesFaresComponent</text>
</g>
<!-- TimesFaresComponent&#45;&gt;TrainsModule -->
<g id="edge4" class="edge">
<title>TimesFaresComponent&#45;&gt;TrainsModule</title>
<path fill="none" stroke="#000000" d="M443.8324,-122.1061C443.8324,-122.1061 443.8324,-140.991 443.8324,-140.991"/>
<polygon fill="#000000" stroke="#000000" points="440.3325,-140.9909 443.8324,-150.991 447.3325,-140.991 440.3325,-140.9909"/>
</g>
<!-- UrikeComponent -->
<g id="node5" class="node">
<title>UrikeComponent</title>
<polygon fill="#ffffb3" stroke="#000000" points="301.705,-122 188.295,-122 188.295,-86 301.705,-86 301.705,-122"/>
<text text-anchor="middle" x="245" y="-99.8" font-family="Times,serif" font-size="14.00" fill="#000000">UrikeComponent</text>
</g>
<!-- UrikeComponent&#45;&gt;TrainsModule -->
<g id="edge5" class="edge">
<title>UrikeComponent&#45;&gt;TrainsModule</title>
<path fill="none" stroke="#000000" d="M245,-122.0225C245,-139.3734 245,-163 245,-163 245,-163 411.2211,-163 411.2211,-163"/>
<polygon fill="#000000" stroke="#000000" points="411.2212,-166.5001 421.2211,-163 411.2211,-159.5001 411.2212,-166.5001"/>
</g>
<!-- TrainsRoutingModule -->
<g id="node7" class="node">
<title>TrainsRoutingModule</title>
<polygon fill="#8dd3c7" stroke="#000000" points="164.4313,-122 161.4313,-126 140.4313,-126 137.4313,-122 23.5687,-122 23.5687,-86 164.4313,-86 164.4313,-122"/>
<text text-anchor="middle" x="94" y="-99.8" font-family="Times,serif" font-size="14.00" fill="#000000">TrainsRoutingModule</text>
</g>
<!-- TrainsRoutingModule&#45;&gt;TrainsModule -->
<g id="edge6" class="edge">
<title>TrainsRoutingModule&#45;&gt;TrainsModule</title>
<path fill="none" stroke="#000000" d="M94,-122.2843C94,-143.3211 94,-175 94,-175 94,-175 411.1251,-175 411.1251,-175"/>
<polygon fill="#000000" stroke="#000000" points="411.1251,-178.5001 421.1251,-175 411.1251,-171.5001 411.1251,-178.5001"/>
</g>
</g>
</svg>
