<?xml version="1.0" encoding="UTF-8" standalone="no"?>
<!DOCTYPE svg PUBLIC "-//W3C//DTD SVG 1.1//EN"
 "http://www.w3.org/Graphics/SVG/1.1/DTD/svg11.dtd">
<!-- Generated by graphviz version 2.40.1 (20161225.0304)
 -->
<!-- Title: dependencies Pages: 1 -->
<svg width="709pt" height="211pt"
 viewBox="0.00 0.00 709.00 211.00" xmlns="http://www.w3.org/2000/svg" xmlns:xlink="http://www.w3.org/1999/xlink">
<g id="graph0" class="graph" transform="scale(1 1) rotate(0) translate(4 207)">
<title>dependencies</title>
<polygon fill="#ffffff" stroke="transparent" points="-4,4 -4,-207 705,-207 705,4 -4,4"/>
<text text-anchor="start" x="329.5091" y="-42.4" font-family="sans-serif" font-weight="bold" font-size="14.00" fill="#000000">Legend</text>
<polygon fill="#ffffb3" stroke="transparent" points="116.5,-10 116.5,-30 136.5,-30 136.5,-10 116.5,-10"/>
<text text-anchor="start" x="140.129" y="-15.4" font-family="sans-serif" font-size="14.00" fill="#000000"> &#160;Declarations</text>
<polygon fill="#8dd3c7" stroke="transparent" points="229.5,-10 229.5,-30 249.5,-30 249.5,-10 229.5,-10"/>
<text text-anchor="start" x="253.2251" y="-15.4" font-family="sans-serif" font-size="14.00" fill="#000000"> &#160;Module</text>
<polygon fill="#80b1d3" stroke="transparent" points="315.5,-10 315.5,-30 335.5,-30 335.5,-10 315.5,-10"/>
<text text-anchor="start" x="339.2812" y="-15.4" font-family="sans-serif" font-size="14.00" fill="#000000"> &#160;Bootstrap</text>
<polygon fill="#fdb462" stroke="transparent" points="412.5,-10 412.5,-30 432.5,-30 432.5,-10 412.5,-10"/>
<text text-anchor="start" x="436.1732" y="-15.4" font-family="sans-serif" font-size="14.00" fill="#000000"> &#160;Providers</text>
<polygon fill="#fb8072" stroke="transparent" points="508.5,-10 508.5,-30 528.5,-30 528.5,-10 508.5,-10"/>
<text text-anchor="start" x="532.2258" y="-15.4" font-family="sans-serif" font-size="14.00" fill="#000000"> &#160;Exports</text>
<g id="clust1" class="cluster">
<title>cluster_TrainsModule</title>
<polygon fill="none" stroke="#000000" stroke-dasharray="1,5" points="8,-70 8,-195 693,-195 693,-70 8,-70"/>
</g>
<g id="clust2" class="cluster">
<title>cluster_TrainsModule_declarations</title>
<polygon fill="none" stroke="#000000" points="180,-78 180,-130 685,-130 685,-78 180,-78"/>
</g>
<g id="clust6" class="cluster">
<title>cluster_TrainsModule_imports</title>
<polygon fill="none" stroke="#000000" points="16,-78 16,-130 172,-130 172,-78 16,-78"/>
</g>
<!-- ChepeExpressComponent -->
<g id="node1" class="node">
<title>ChepeExpressComponent</title>
<polygon fill="#ffffb3" stroke="#000000" points="676.9157,-122 515.0843,-122 515.0843,-86 676.9157,-86 676.9157,-122"/>
<text text-anchor="middle" x="596" y="-99.8" font-family="Times,serif" font-size="14.00" fill="#000000">ChepeExpressComponent</text>
</g>
<!-- TrainsModule -->
<g id="node4" class="node">
<title>TrainsModule</title>
<polygon fill="#8dd3c7" stroke="#000000" points="378.8133,-187 375.8133,-191 354.8133,-191 351.8133,-187 283.1867,-187 283.1867,-151 378.8133,-151 378.8133,-187"/>
<text text-anchor="middle" x="331" y="-164.8" font-family="Times,serif" font-size="14.00" fill="#000000">TrainsModule</text>
</g>
<!-- ChepeExpressComponent&#45;&gt;TrainsModule -->
<g id="edge1" class="edge">
<title>ChepeExpressComponent&#45;&gt;TrainsModule</title>
<path fill="none" stroke="#000000" d="M596,-122.1061C596,-141.3391 596,-169 596,-169 596,-169 388.6827,-169 388.6827,-169"/>
<polygon fill="#000000" stroke="#000000" points="388.6828,-165.5001 378.6827,-169 388.6827,-172.5001 388.6828,-165.5001"/>
</g>
<!-- ChepeRegionalComponent -->
<g id="node2" class="node">
<title>ChepeRegionalComponent</title>
<polygon fill="#ffffb3" stroke="#000000" points="496.6456,-122 329.3544,-122 329.3544,-86 496.6456,-86 496.6456,-122"/>
<text text-anchor="middle" x="413" y="-99.8" font-family="Times,serif" font-size="14.00" fill="#000000">ChepeRegionalComponent</text>
</g>
<!-- ChepeRegionalComponent&#45;&gt;TrainsModule -->
<g id="edge2" class="edge">
<title>ChepeRegionalComponent&#45;&gt;TrainsModule</title>
<path fill="none" stroke="#000000" d="M353.9169,-122.1061C353.9169,-122.1061 353.9169,-140.991 353.9169,-140.991"/>
<polygon fill="#000000" stroke="#000000" points="350.417,-140.9909 353.9169,-150.991 357.417,-140.991 350.417,-140.9909"/>
</g>
<!-- GalleryComponent -->
<g id="node3" class="node">
<title>GalleryComponent</title>
<polygon fill="#ffffb3" stroke="#000000" points="311.8104,-122 188.1896,-122 188.1896,-86 311.8104,-86 311.8104,-122"/>
<text text-anchor="middle" x="250" y="-99.8" font-family="Times,serif" font-size="14.00" fill="#000000">GalleryComponent</text>
</g>
<!-- GalleryComponent&#45;&gt;TrainsModule -->
<g id="edge3" class="edge">
<title>GalleryComponent&#45;&gt;TrainsModule</title>
<path fill="none" stroke="#000000" d="M297.4993,-122.1061C297.4993,-122.1061 297.4993,-140.991 297.4993,-140.991"/>
<polygon fill="#000000" stroke="#000000" points="293.9994,-140.9909 297.4993,-150.991 300.9994,-140.991 293.9994,-140.9909"/>
</g>
<!-- TrainsRoutingModule -->
<g id="node5" class="node">
<title>TrainsRoutingModule</title>
<polygon fill="#8dd3c7" stroke="#000000" points="164.4313,-122 161.4313,-126 140.4313,-126 137.4313,-122 23.5687,-122 23.5687,-86 164.4313,-86 164.4313,-122"/>
<text text-anchor="middle" x="94" y="-99.8" font-family="Times,serif" font-size="14.00" fill="#000000">TrainsRoutingModule</text>
</g>
<!-- TrainsRoutingModule&#45;&gt;TrainsModule -->
<g id="edge4" class="edge">
<title>TrainsRoutingModule&#45;&gt;TrainsModule</title>
<path fill="none" stroke="#000000" d="M94,-122.1061C94,-141.3391 94,-169 94,-169 94,-169 273.3246,-169 273.3246,-169"/>
<polygon fill="#000000" stroke="#000000" points="273.3246,-172.5001 283.3246,-169 273.3246,-165.5001 273.3246,-172.5001"/>
</g>
</g>
</svg>
