<?xml version="1.0" encoding="UTF-8"?>
<svg width="64px" height="64px" viewBox="0 0 64 64" version="1.1" xmlns="http://www.w3.org/2000/svg" xmlns:xlink="http://www.w3.org/1999/xlink">
    <!-- Generator: Sketch 51.3 (57544) - http://www.bohemiancoding.com/sketch -->
    <title>calendar (2)</title>
    <desc>Created with Sketch.</desc>
    <defs></defs>
    <g id="Page-1" stroke="none" stroke-width="1" fill="none" fill-rule="evenodd">
        <g id="calendar-(2)" fill="#4F5959" fill-rule="nonzero">
            <path d="M64,10.978 C64,7.642 61.309,4.929 58,4.929 L51.652,4.929 L51.652,2.017 C51.652,0.902 50.757,0 49.652,0 C48.547,0 47.652,0.902 47.652,2.017 L47.652,4.929 L16.258,4.929 L16.258,2.017 C16.258,0.902 15.363,0 14.258,0 C13.153,0 12.258,0.902 12.258,2.017 L12.258,4.929 L6,4.929 C2.691,4.929 0,7.642 0,10.978 L0,20.187 C0,20.297 0.045,20.392 0.063,20.498 C0.045,20.604 0,20.699 0,20.809 C0,20.812 0.002,20.817 0.002,20.82 C0.002,20.825 0,20.829 0,20.833 L0,57.952 C0,61.287 2.691,64 6,64 L58,64 C61.309,64 64,61.287 64,57.951 L64,20.833 C64,20.829 63.998,20.825 63.998,20.821 C63.998,20.818 64,20.813 64,20.81 C64,20.7 63.955,20.605 63.937,20.498 C63.955,20.392 64,20.297 64,20.187 L64,10.978 Z M60,57.951 C60,59.063 59.104,59.967 58,59.967 L6,59.967 C4.896,59.967 4,59.063 4,57.951 L4,22.825 L60,22.825 L60,57.951 Z M60,18.792 L4,18.792 L4,10.977 C4,9.864 4.896,8.96 6,8.96 L12.258,8.96 L12.258,11.873 C12.258,12.987 13.153,13.889 14.258,13.889 C15.363,13.889 16.258,12.987 16.258,11.873 L16.258,8.961 L47.653,8.961 L47.653,11.874 C47.653,12.988 48.548,13.89 49.653,13.89 C50.759,13.89 51.653,12.988 51.653,11.874 L51.653,8.961 L58,8.961 C59.104,8.961 60,9.865 60,10.978 L60,18.792 Z" id="Shape"></path>
            <ellipse id="Oval" cx="21.182" cy="33.828" rx="2" ry="2.016"></ellipse>
            <ellipse id="Oval" cx="30.852" cy="33.828" rx="2" ry="2.016"></ellipse>
            <ellipse id="Oval" cx="41.662" cy="33.828" rx="2" ry="2.016"></ellipse>
            <ellipse id="Oval" cx="52.697" cy="33.828" rx="2" ry="2.016"></ellipse>
            <ellipse id="Oval" cx="11.303" cy="40.806" rx="2" ry="2.016"></ellipse>
            <ellipse id="Oval" cx="21.182" cy="40.806" rx="2" ry="2.016"></ellipse>
            <ellipse id="Oval" cx="30.852" cy="40.806" rx="2" ry="2.016"></ellipse>
            <ellipse id="Oval" cx="41.662" cy="40.806" rx="2" ry="2.016"></ellipse>
            <ellipse id="Oval" cx="52.697" cy="40.806" rx="2" ry="2.016"></ellipse>
            <ellipse id="Oval" cx="11.303" cy="47.755" rx="2" ry="2.016"></ellipse>
            <ellipse id="Oval" cx="21.182" cy="47.755" rx="2" ry="2.016"></ellipse>
            <ellipse id="Oval" cx="30.852" cy="47.755" rx="2" ry="2.016"></ellipse>
            <ellipse id="Oval" cx="41.662" cy="47.755" rx="2" ry="2.016"></ellipse>
            <ellipse id="Oval" cx="52.697" cy="47.755" rx="2" ry="2.016"></ellipse>
            <ellipse id="Oval" cx="11.303" cy="54.734" rx="2" ry="2.016"></ellipse>
            <ellipse id="Oval" cx="30.852" cy="54.734" rx="2" ry="2.016"></ellipse>
        </g>
    </g>
</svg>