<svg id="Layer_1" data-name="Layer 1" xmlns="http://www.w3.org/2000/svg" viewBox="0 0 492.01 408.58"><defs><style>.cls-1{fill:#c8c8c8;}</style></defs><title>icon-arrow-right-gray</title><path class="cls-1" d="M36.71,253.44H365.93L262.44,357.16a27.17,27.17,0,0,0,0,38.21l16.1,16.12a27,27,0,0,0,38,0L494,234.11A27.14,27.14,0,0,0,494,196L316.57,18.54a27,27,0,0,0-38,0l-16.1,16.11a26.66,26.66,0,0,0-7.85,19,25.83,25.83,0,0,0,7.85,18.65L367.1,176.62H37.1c-14.83,0-27.29,12.78-27.29,27.6V227c0,14.82,12.83,26.6,27.66,26.6" transform="translate(-9.81 -10.72)"/></svg>