<svg version="1.1" viewBox="0 0 43.83 44" xmlns="http://www.w3.org/2000/svg" xmlns:xlink="http://www.w3.org/1999/xlink" id="Layer_1" overflow="hidden"><defs></defs><path d=" M 21.93 1.15 C 10.4425 1.15003 1.13003 10.4625 1.13006 21.9501 C 1.13009 33.4376 10.4426 42.75 21.9301 42.75 C 33.3981 42.75 42.7024 33.4679 42.73 22 C 42.7135 10.5193 33.4107 1.21652 21.93 1.2 Z M 21.93 41.15 C 11.3261 41.1555 2.72555 32.5638 2.72007 21.9599 C 2.71458 11.3561 11.3063 2.75549 21.9101 2.75001 C 32.514 2.74452 41.1146 11.3362 41.1201 21.9401 C 41.1201 21.96 41.1201 21.98 41.12 22 C 41.109 32.5954 32.5254 41.1835 21.93 41.2 Z" stroke="none" stroke-width="1" stroke-dasharray="" stroke-dashoffset="1" fill="#67BAAF" fill-opacity="1"/><path d=" M 31.93 21.15 L 22.73 21.15 L 22.73 12.35 C 22.6804 11.9054 22.2797 11.5852 21.8351 11.6349 C 21.4589 11.6769 21.162 11.9738 21.12 12.35 L 21.12 21.15 L 11.93 21.15 C 11.4882 21.15 11.13 21.5082 11.13 21.95 C 11.13 22.3918 11.4882 22.75 11.93 22.75 L 21.12 22.75 L 21.12 32.35 C 21.1696 32.7946 21.5703 33.1148 22.0149 33.0651 C 22.3911 33.0231 22.688 32.7262 22.73 32.35 L 22.73 22.75 L 31.93 22.75 C 32.3718 22.75 32.73 22.3918 32.73 21.95 C 32.73 21.5082 32.3718 21.15 31.93 21.15 Z" stroke="none" stroke-width="1" stroke-dasharray="" stroke-dashoffset="1" fill="#67BAAF" fill-opacity="1"/></svg>