<svg id="Layer_1" data-name="Layer 1" xmlns="http://www.w3.org/2000/svg" xmlns:xlink="http://www.w3.org/1999/xlink" viewBox="0 0 33.28 44.41"><defs><style>.cls-1{fill:none;}.cls-2{clip-path:url(#clip-path);}.cls-3{fill:#565656;}</style><clipPath id="clip-path"><rect class="cls-1" x="0.98" y="0.19" width="31.92" height="43.92"/></clipPath></defs><title>icon-delete</title><g class="cls-2"><path class="cls-3" d="M30.13,5.55H22.58V3.15a2.41,2.41,0,0,0-2.4-2.4h-6.4a2.41,2.41,0,0,0-2.41,2.4v2.4H3.82A2.84,2.84,0,0,0,1,8.39V12H33V8.39a2.85,2.85,0,0,0-2.85-2.84ZM21,5.55H13V3.15a.8.8,0,0,1,.8-.8h6.4a.8.8,0,0,1,.8.8Zm0,0"/></g><path class="cls-3" d="M2.58,40.17a3,3,0,0,0,3,3H28.39a3,3,0,0,0,3-3V13.55H2.57V40.17Zm0,0"/></svg>