<svg id="Layer_1" data-name="Layer 1" xmlns="http://www.w3.org/2000/svg" viewBox="0 0 122.26 108.95"><defs><style>.cls-1{fill:#e5e1dc;}</style></defs><title>icon-reply</title><path class="cls-1" d="M6.31,59.35q10.56,26.26,57,26.26h14.6V102.3a4.14,4.14,0,0,0,7.1,2.93l33.38-33.37a4.1,4.1,0,0,0,0-5.86L85,32.62a4.17,4.17,0,0,0-7.1,2.94V52.24H63.34q-6.39,0-11.44-.39a83.3,83.3,0,0,1-10-1.4,37.44,37.44,0,0,1-8.67-2.77,30.48,30.48,0,0,1-6.87-4.53,22.81,22.81,0,0,1-5.22-6.58,35.62,35.62,0,0,1-3.16-9A55.41,55.41,0,0,1,16.8,15.75q0-3.6.33-8a13.21,13.21,0,0,1,.16-1.54,12.74,12.74,0,0,0,.16-1.72,2.42,2.42,0,0,0-.55-1.63,1.92,1.92,0,0,0-1.54-.65A2.22,2.22,0,0,0,13.54,3.3a8.18,8.18,0,0,0-.85,1.43l-.88,2c-.32.73-.55,1.25-.68,1.56Q2.85,26.82,2.85,37.64q0,13,3.46,21.71Zm0,0"/></svg>