<svg id="Layer_1" data-name="Layer 1" xmlns="http://www.w3.org/2000/svg" viewBox="0 0 512 424"><defs><style>.cls-1{fill:#1a2741;}</style></defs><title>icon-right</title><path class="cls-1" d="M36.7,251.42H365.92L262.42,355.14a27.21,27.21,0,0,0,0,38.22l16.11,16.11a26.94,26.94,0,0,0,38,0L494,232.09a27.1,27.1,0,0,0,0-38.15L316.55,16.52a27,27,0,0,0-38,0L262.42,32.64a26.65,26.65,0,0,0-7.84,19,25.89,25.89,0,0,0,7.84,18.66L367.09,174.6H37.1c-14.83,0-27.29,12.78-27.29,27.6V225c0,14.82,12.83,26.6,27.65,26.6"/></svg>