<?xml version="1.0" encoding="utf-8"?>
<!-- Generator: Adobe Illustrator 22.0.1, SVG Export Plug-In . SVG Version: 6.00 Build 0)  -->
<svg version="1.1" id="Layer_1" xmlns="http://www.w3.org/2000/svg" xmlns:xlink="http://www.w3.org/1999/xlink" x="0px" y="0px"
	 viewBox="0 0 122.3 108.9" style="enable-background:new 0 0 122.3 108.9;" xml:space="preserve">
<style type="text/css">
	.st0{fill:#C8C8C8;}
</style>
<title>icon-reply</title>
<path class="st0" d="M6.3,59.3c7,17.5,26,26.3,57,26.3h14.6v16.7c0,2.3,1.8,4.2,4.1,4.2c1.1,0,2.2-0.4,3-1.2l33.4-33.4
	c1.6-1.6,1.6-4.2,0.1-5.8c0,0,0,0-0.1-0.1L85,32.6c-1.6-1.6-4.3-1.6-5.9,0c-0.8,0.8-1.2,1.8-1.2,2.9v16.7H63.3
	c-4.3,0-8.1-0.1-11.4-0.4c-3.4-0.3-6.7-0.7-10-1.4c-3-0.6-5.9-1.5-8.7-2.8c-2.5-1.2-4.8-2.7-6.9-4.5c-2.1-1.9-3.9-4.1-5.2-6.6
	c-1.5-2.8-2.5-5.9-3.2-9c-0.8-3.9-1.2-7.8-1.2-11.8c0-2.4,0.1-5.1,0.3-8c0-0.5,0.1-1,0.2-1.5c0.1-0.6,0.1-1.1,0.2-1.7
	c0-0.6-0.2-1.2-0.5-1.6c-0.4-0.4-1-0.7-1.5-0.7c-0.8,0-1.4,0.4-1.8,1.1c-0.3,0.4-0.6,0.9-0.9,1.4l-0.9,2c-0.3,0.7-0.6,1.2-0.7,1.6
	C5.6,20.6,2.8,30.4,2.8,37.6C2.8,46.3,4,53.5,6.3,59.3z"/>
</svg>
