<?xml version="1.0" encoding="UTF-8"?>
<svg width="574px" height="518px" viewBox="0 0 574 518" version="1.1" xmlns="http://www.w3.org/2000/svg" xmlns:xlink="http://www.w3.org/1999/xlink">
    <!-- Generator: Sketch 51.3 (57544) - http://www.bohemiancoding.com/sketch -->
    <title>xml-file-type-outlined-interface-symbol</title>
    <desc>Created with Sketch.</desc>
    <defs></defs>
    <g id="Page-1" stroke="none" stroke-width="1" fill="none" fill-rule="evenodd">
        <g id="xml-file-type-outlined-interface-symbol" fill="#4F5959" fill-rule="nonzero">
            <polygon id="Shape" points="267.75 249.312 239.062 299.037 210.375 249.312 191.25 249.312 229.5 316.25 191.25 383.188 210.375 383.188 239.062 333.463 267.75 383.188 286.875 383.188 248.625 316.25 286.875 249.312"></polygon>
            <path d="M516.375,191.938 L363.375,191.938 L363.375,134.563 L248.625,0.688 L38.25,0.688 C17.212,0.688 0,17.9 0,38.938 L0,478.813 C0,499.85 17.212,517.063 38.25,517.063 L325.125,517.063 C346.162,517.063 363.375,499.85 363.375,478.813 L363.375,440.563 L516.375,440.563 C548.888,440.563 573.75,415.701 573.75,383.188 L573.75,249.312 C573.75,216.8 548.888,191.938 516.375,191.938 Z M248.625,29.375 L338.513,134.563 L267.75,134.563 C258.188,134.563 248.625,125.001 248.625,115.438 L248.625,29.375 Z M344.25,478.812 C344.25,488.374 336.6,497.937 325.125,497.937 L38.25,497.937 C28.688,497.937 19.125,490.287 19.125,478.812 L19.125,38.938 C19.125,29.376 26.775,19.813 38.25,19.813 L229.5,19.813 L229.5,115.438 C229.5,136.476 246.712,153.688 267.75,153.688 L344.25,153.688 L344.25,191.938 L191.25,191.938 C158.737,191.938 133.875,216.8 133.875,249.313 L133.875,383.188 C133.875,415.701 158.737,440.563 191.25,440.563 L344.25,440.563 L344.25,478.812 Z M554.625,383.188 C554.625,404.225 537.412,421.438 516.375,421.438 L191.25,421.438 C170.212,421.438 153,404.225 153,383.188 L153,249.312 C153,228.274 170.212,211.062 191.25,211.062 L516.375,211.062 C537.412,211.062 554.625,228.274 554.625,249.312 L554.625,383.188 Z" id="Shape"></path>
            <polygon id="Shape" points="382.5 249.312 353.812 306.688 325.125 249.312 315.562 249.312 306 249.312 306 383.188 325.125 383.188 325.125 287.562 344.25 325.812 353.812 325.812 363.375 325.812 382.5 287.562 382.5 383.188 401.625 383.188 401.625 249.312 392.062 249.312"></polygon>
            <polygon id="Shape" points="439.875 249.312 420.75 249.312 420.75 383.188 516.375 383.188 516.375 364.062 439.875 364.062"></polygon>
        </g>
    </g>
</svg>